<svg width="22" height="16" viewBox="0 0 22 16" fill="none" xmlns="http://www.w3.org/2000/svg">
<path d="M0.333496 0H21.6668V16H0.333496V0Z" fill="#00008B"/>
<path d="M1.5835 0L5.65016 3.01667L9.70016 0H11.0002V1.03333L7.00016 4.01667L11.0002 6.98333V8H9.66683L5.66683 5.01667L1.6835 8H0.333496V7L4.31683 4.03333L0.333496 1.06667V0H1.5835Z" fill="white"/>
<path d="M7.40016 4.68333L11.0002 7.33333V8L6.4835 4.68333H7.40016ZM4.3335 5.01667L4.4335 5.6L1.2335 8H0.333496L4.3335 5.01667ZM11.0002 0V0.05L6.85016 3.18333L6.8835 2.45L10.1668 0H11.0002ZM0.333496 0L4.31683 2.93333H3.31683L0.333496 0.7V0Z" fill="#FF0000"/>
<path d="M4.35016 0V8H7.01683V0H4.35016ZM0.333496 2.66667V5.33333H11.0002V2.66667H0.333496Z" fill="white"/>
<path d="M0.333496 3.21667V4.81667H11.0002V3.21667H0.333496ZM4.8835 0V8H6.4835V0H4.8835Z" fill="#FF0000"/>
<path d="M17.9003 13.2231L17.2169 13.3098L17.2903 13.9931L16.7969 13.5131L16.3069 13.9965L16.3736 13.3131L15.6903 13.2331L16.2669 12.8598L15.9036 12.2765L16.5569 12.4931L16.7869 11.8431L17.0236 12.4898L17.6736 12.2665L17.3169 12.8531L17.8969 13.2231H17.9003ZM17.7769 9.31645L17.8669 8.88312L17.5403 8.58312L17.9803 8.53312L18.1636 8.12979L18.3469 8.53312L18.7869 8.58312L18.4603 8.88312L18.5503 9.31645L18.1636 9.09645L17.7769 9.31645ZM14.3069 7.31645L13.6303 7.38979L13.6903 8.06645L13.2103 7.58312L12.7169 8.05312L12.7969 7.37645L12.1236 7.28645L12.7003 6.92645L12.3503 6.34312L12.9936 6.56979L13.2336 5.93312L13.4569 6.57645L14.1036 6.36645L13.7403 6.94312L14.3103 7.31645H14.3069ZM21.1003 6.22312L20.4036 6.31312L20.4803 7.00979L19.9769 6.51979L19.4769 7.01312L19.5469 6.31312L18.8503 6.23312L19.4403 5.84979L19.0703 5.25312L19.7369 5.47645L19.9703 4.81645L20.2103 5.47645L20.8736 5.24645L20.5069 5.84645L21.1003 6.22312ZM17.8969 3.43979L17.2069 3.51645L17.2703 4.20979L16.7803 3.71645L16.2769 4.19645L16.3569 3.50645L15.6669 3.41312L16.2569 3.04645L15.9003 2.44979L16.5569 2.67979L16.8003 2.02979L17.0269 2.68645L17.6869 2.46979L17.3169 3.05645L17.8969 3.43979ZM8.13361 12.8565L6.60695 13.0365L6.76028 14.5665L5.66695 13.4865L4.56695 14.5598L4.73028 13.0298L3.20361 12.8365L4.50028 12.0098L3.70028 10.6965L5.15361 11.1965L5.68028 9.74979L6.19695 11.1998L7.65361 10.7098L6.84361 12.0165L8.13695 12.8531L8.13361 12.8565Z" fill="white"/>
</svg>
