<svg width="22" height="16" viewBox="0 0 22 16" fill="none" xmlns="http://www.w3.org/2000/svg">
<g clip-path="url(#clip0_407_4974)">
<path fill-rule="evenodd" clip-rule="evenodd" d="M0.666504 0H21.9998V16H0.666504V0Z" fill="#229E45"/>
<path fill-rule="evenodd" clip-rule="evenodd" d="M11.3797 14.5335L21.4297 8.01013L11.3197 1.4668L1.23633 8.02346L11.3797 14.5335Z" fill="#F8E509"/>
<path fill-rule="evenodd" clip-rule="evenodd" d="M15.7599 8C15.7599 10.3433 13.8566 12.2433 11.5066 12.2433C10.6668 12.242 9.84631 11.9917 9.14875 11.5242C8.4512 11.0566 7.90793 10.3927 7.58763 9.61641C7.26733 8.84012 7.18438 7.9863 7.34926 7.16287C7.51414 6.33945 7.91945 5.5834 8.51396 4.99029C9.10846 4.39718 9.86547 3.99365 10.6893 3.83071C11.5131 3.66777 12.3667 3.75273 13.1422 4.07486C13.9178 4.39698 14.5804 4.94181 15.0463 5.64046C15.5123 6.33912 15.7606 7.16023 15.7599 8Z" fill="#2B49A3"/>
<path fill-rule="evenodd" clip-rule="evenodd" d="M10.1099 10.5432L9.97658 10.4666L9.84325 10.5332L9.87325 10.3832L9.76658 10.2699L9.91658 10.2532L9.98992 10.1199L10.0532 10.2599L10.1999 10.2866L10.0899 10.3866M12.9566 11.2632L12.8266 11.1866L12.6932 11.2533L12.7199 11.1033L12.6166 10.9932L12.7666 10.9766L12.8366 10.8399L12.9032 10.9799L13.0499 11.0066L12.9366 11.1099M11.7299 10.1099L11.6166 10.0432L11.4999 10.1032L11.5266 9.97325L11.4332 9.87658L11.5666 9.86325L11.6266 9.74325L11.6799 9.86658L11.8099 9.88992L11.7099 9.97992M14.6099 9.69658L14.4966 9.62992L14.3799 9.68992L14.4066 9.55992L14.3166 9.46658L14.4466 9.45325L14.5066 9.33658L14.5599 9.45658L14.6866 9.47992L14.5899 9.56658M11.6799 8.83325L11.5466 8.75992L11.4132 8.82658L11.4399 8.67325L11.3366 8.56325L11.4866 8.54658L11.5566 8.40992L11.6232 8.54992L11.7699 8.57658L11.6566 8.68325M8.16992 7.51658L8.03658 7.44325L7.90325 7.50992L7.93658 7.35658L7.82658 7.24658L7.97992 7.22992L8.04658 7.09325L8.11325 7.23325L8.25992 7.25992L8.14992 7.36325M8.59325 9.26992L8.45992 9.19325L8.32658 9.25992L8.35658 9.10992L8.24992 8.99992L8.39992 8.97992L8.46992 8.84658L8.53658 8.98658L8.68325 9.01325L8.57325 9.11658M12.9732 6.87325L12.8532 6.80658L12.7332 6.86658L12.7599 6.73325L12.6666 6.63325L12.7999 6.61658L12.8632 6.49658L12.9199 6.62325L13.0532 6.64658L12.9532 6.73658M12.7299 8.01325L12.6399 7.95992L12.5432 8.00658L12.5632 7.89992L12.4899 7.82325L12.5966 7.80992L12.6466 7.71658L12.6899 7.81658L12.7899 7.83325L12.7166 7.90658M7.97658 9.58658L7.88658 9.53658L7.79658 9.57992L7.81658 9.47992L7.74658 9.40658L7.84658 9.39325L7.89325 9.30325L7.93658 9.39658L8.03658 9.41658L7.95992 9.48325M14.6332 9.99325L14.5599 9.95658L14.4866 9.98992L14.5032 9.91325L14.4466 9.85992L14.5266 9.84992L14.5666 9.78325L14.5999 9.84992L14.6832 9.86658L14.6199 9.91658" fill="#FFFFEF"/>
<path fill-rule="evenodd" clip-rule="evenodd" d="M7.97658 9.58656L7.88658 9.53656L7.79658 9.57989L7.81658 9.47989L7.74658 9.40656L7.84658 9.39322L7.89325 9.30322L7.93658 9.39656L8.03658 9.41656L7.95992 9.48322" fill="#FFFFEF"/>
<path fill-rule="evenodd" clip-rule="evenodd" d="M7.97658 9.58658L7.88658 9.53658L7.79658 9.57992L7.81658 9.47992L7.74658 9.40658L7.84658 9.39325L7.89325 9.30325L7.93658 9.39658L8.03658 9.41658L7.95992 9.48325M9.36992 9.58325L9.28325 9.53658L9.19325 9.57992L9.21325 9.47992L9.14325 9.40658L9.24325 9.39325L9.28992 9.30325L9.33325 9.39658L9.43325 9.41325L9.35658 9.48325M9.19658 10.0499L9.10992 9.99992L9.01992 10.0466L9.03992 9.94658L8.96992 9.86992L9.06992 9.85658L9.11658 9.76658L9.15992 9.85992L9.25992 9.87992L9.18325 9.94658M12.0966 9.20658L12.0099 9.15325L11.9166 9.19992L11.9366 9.09992L11.8699 9.02325L11.9699 9.01325L12.0166 8.92325L12.0566 9.01658L12.1566 9.03325L12.0832 9.10325M11.2466 9.20325L11.1566 9.15325L11.0666 9.19992L11.0866 9.09992L11.0199 9.02325L11.1199 9.01325L11.1666 8.91992L11.2066 9.01658L11.3066 9.03325L11.2332 9.10325M8.93992 8.90992L8.88325 8.87658L8.82658 8.90325L8.83992 8.83992L8.79658 8.79325L8.85992 8.78658L8.88658 8.72992L8.91325 8.78992L8.97658 8.79992L8.92992 8.84325M14.5233 10.3566L14.4366 10.3066L14.3466 10.3532L14.3666 10.2532L14.2966 10.1766L14.3966 10.1632L14.4432 10.0732L14.4866 10.1666L14.5866 10.1866L14.5099 10.2532M13.8166 10.4532L13.7432 10.4066L13.6666 10.4466L13.6832 10.3599L13.6266 10.2999L13.7099 10.2899L13.7499 10.2132L13.7832 10.2932L13.8666 10.3066L13.8033 10.3666M14.1499 10.4432L14.0833 10.4032L14.0132 10.4366L14.0266 10.3599L13.9733 10.3032L14.0499 10.2932L14.0866 10.2266L14.1199 10.2932L14.1966 10.3099L14.1399 10.3632M15.1099 9.60325L15.0432 9.56992L14.9766 9.60325L14.9932 9.52658L14.9399 9.46992L15.0166 9.45992L15.0499 9.39325L15.0833 9.46325L15.1533 9.47658L15.0999 9.52992M13.8066 10.9232L13.7233 10.8766L13.6332 10.9166L13.6533 10.8232L13.5866 10.7566L13.6866 10.7466L13.7299 10.6632L13.7699 10.7499L13.8699 10.7666L13.7932 10.8299M13.8132 11.3032L13.7332 11.2566L13.6533 11.2999L13.6733 11.2066L13.6099 11.1399L13.6999 11.1266L13.7399 11.0432L13.7766 11.1299L13.8666 11.1466L13.7999 11.2132M13.1666 10.4432L13.1033 10.4032L13.0366 10.4366L13.0499 10.3632L12.9999 10.3066L13.0733 10.2999L13.1066 10.2332L13.1399 10.2999L13.2132 10.3132L13.1599 10.3666M12.5666 10.4432L12.4999 10.4032L12.4332 10.4366L12.4499 10.3632L12.3966 10.3066L12.4732 10.2999L12.5066 10.2332L12.5399 10.2999L12.6099 10.3132L12.5566 10.3666M11.5432 9.54658L11.4766 9.50992L11.4099 9.54325L11.4266 9.46658L11.3733 9.41325L11.4466 9.40325L11.4799 9.33658L11.5132 9.40325L11.5866 9.41992L11.5332 9.46992M11.6566 11.3699L11.6032 11.3399L11.5432 11.3699L11.5566 11.3032L11.5132 11.2566L11.5766 11.2499L11.6066 11.1932L11.6332 11.2532L11.6966 11.2632L11.6499 11.3066M10.1099 8.41992L9.97658 8.34325L9.84325 8.40992L9.87325 8.25992L9.76658 8.14992L9.91658 8.12992L9.98992 7.99658L10.0532 8.13658L10.1999 8.16325L10.0899 8.26658" fill="#FFFFEF"/>
<path fill-rule="evenodd" clip-rule="evenodd" d="M15.4798 9.52644C15.5624 9.31217 15.627 9.09141 15.6731 8.86644C13.4131 6.88311 10.8964 5.86645 7.71644 6.07645C7.6011 6.29961 7.50627 6.53279 7.43311 6.77311C11.1998 6.41311 13.9664 8.07978 15.4798 9.52644Z" fill="white"/>
<path d="M14.4666 8.41353L14.5433 8.45686C14.5318 8.4795 14.5283 8.50532 14.5333 8.53019C14.5411 8.55432 14.5578 8.57457 14.5799 8.58686C14.6033 8.60353 14.6266 8.61353 14.6466 8.61019C14.6666 8.61019 14.6799 8.6002 14.6899 8.58686C14.6958 8.57801 14.6981 8.56734 14.6966 8.55686C14.6939 8.54455 14.6882 8.5331 14.6799 8.52353C14.6733 8.51353 14.6566 8.49019 14.6299 8.46353C14.6025 8.43524 14.582 8.40102 14.5699 8.36353C14.5616 8.33515 14.5638 8.30473 14.576 8.27781C14.5883 8.25088 14.6098 8.22926 14.6366 8.21686C14.6609 8.20674 14.6876 8.20441 14.7133 8.2102C14.7446 8.21741 14.7741 8.23103 14.7999 8.2502C14.8466 8.28353 14.8766 8.31686 14.8866 8.35686C14.8912 8.37557 14.8918 8.39504 14.8884 8.414C14.8849 8.43296 14.8775 8.45097 14.8666 8.46686L14.7866 8.41686C14.7966 8.39686 14.7999 8.37686 14.7933 8.3602C14.7899 8.34353 14.7766 8.32686 14.7533 8.31353C14.7362 8.29976 14.7152 8.29161 14.6933 8.29019C14.6872 8.28999 14.6813 8.29143 14.676 8.29437C14.6707 8.29731 14.6663 8.30162 14.6633 8.30686C14.6566 8.31686 14.6566 8.32686 14.6599 8.34019C14.6633 8.35353 14.6799 8.38019 14.7133 8.41353C14.7466 8.44686 14.7666 8.47686 14.7799 8.49686C14.7918 8.51871 14.7972 8.54351 14.7955 8.56833C14.7937 8.59314 14.7848 8.61693 14.7699 8.63686C14.7543 8.65952 14.7323 8.67695 14.7066 8.68686C14.6816 8.69837 14.6537 8.70186 14.6266 8.69686C14.5966 8.69019 14.5666 8.67686 14.5333 8.65353C14.4833 8.6202 14.4533 8.58353 14.4433 8.54353C14.4324 8.49817 14.4396 8.45037 14.4633 8.4102L14.4666 8.41353ZM14.0799 8.1602L14.1633 8.20353C14.153 8.22655 14.1506 8.25236 14.1566 8.27686C14.1651 8.29974 14.1817 8.31871 14.2033 8.33019C14.2299 8.34686 14.2499 8.35353 14.2699 8.35019C14.2899 8.35019 14.3033 8.34019 14.3133 8.32353C14.3183 8.3156 14.3207 8.30624 14.3199 8.29686C14.3199 8.28686 14.3133 8.27353 14.3033 8.26353C14.2862 8.24292 14.2684 8.2229 14.2499 8.20353C14.2133 8.16686 14.1899 8.13686 14.1833 8.1102C14.1778 8.09304 14.1762 8.0749 14.1785 8.05705C14.1808 8.0392 14.187 8.02207 14.1966 8.00686C14.2093 7.98629 14.2279 7.97003 14.2499 7.9602C14.2728 7.94964 14.2984 7.94615 14.3233 7.95019C14.3541 7.95539 14.3836 7.96672 14.4099 7.98353C14.4599 8.01686 14.4899 8.0502 14.4999 8.08686C14.506 8.1056 14.508 8.12543 14.5057 8.14499C14.5034 8.16455 14.4969 8.18338 14.4866 8.20019L14.4033 8.15353C14.4133 8.1302 14.4166 8.11353 14.4099 8.09686C14.4033 8.08019 14.3899 8.06353 14.3666 8.05019C14.3482 8.03696 14.326 8.02995 14.3033 8.03019C14.2978 8.03056 14.2925 8.03228 14.2879 8.03519C14.2832 8.03809 14.2793 8.0421 14.2766 8.04686C14.2699 8.05686 14.2699 8.06686 14.2733 8.08019C14.2766 8.09353 14.2966 8.1202 14.3299 8.15353C14.3633 8.18686 14.3866 8.21353 14.3966 8.23353C14.41 8.25443 14.4171 8.27872 14.4171 8.30353C14.4171 8.32834 14.41 8.35262 14.3966 8.37353C14.3822 8.39678 14.3614 8.41532 14.3366 8.42686C14.3116 8.43837 14.2837 8.44186 14.2566 8.43686C14.2223 8.43106 14.1895 8.41861 14.1599 8.40019C14.1169 8.37722 14.0837 8.33929 14.0666 8.29353C14.0537 8.24902 14.0585 8.20127 14.0799 8.1602ZM13.6066 8.03353L13.8499 7.63353L14.1433 7.81686L14.1033 7.88353L13.8899 7.7502L13.8366 7.84019L14.0366 7.96353L13.9933 8.03019L13.7933 7.90686L13.7266 8.01686L13.9499 8.1502L13.9099 8.21686L13.6099 8.03353H13.6066ZM12.9166 7.46686L12.9533 7.4002L13.1333 7.4902L13.0499 7.65686C13.0233 7.66353 12.9899 7.66686 12.9499 7.66353C12.9115 7.65929 12.8742 7.64799 12.8399 7.63019C12.7996 7.61054 12.7651 7.58066 12.7399 7.54353C12.717 7.50903 12.7054 7.46826 12.7066 7.42686C12.7083 7.38377 12.7197 7.34161 12.7399 7.30353C12.76 7.26344 12.7898 7.22905 12.8266 7.20353C12.8618 7.17917 12.9038 7.16635 12.9466 7.16686C12.9799 7.16686 13.0133 7.17686 13.0533 7.2002C13.1066 7.22353 13.1399 7.25686 13.1566 7.29353C13.1739 7.32993 13.1775 7.37138 13.1666 7.4102L13.0766 7.38353C13.0821 7.3612 13.0798 7.33766 13.0699 7.31686C13.0599 7.29686 13.0433 7.28353 13.0166 7.2702C13.0011 7.26132 12.9838 7.25585 12.966 7.25412C12.9482 7.2524 12.9302 7.25447 12.9133 7.2602C12.8799 7.2702 12.8499 7.30019 12.8266 7.34686C12.8033 7.39353 12.7933 7.43686 12.8033 7.47353C12.8079 7.49092 12.8162 7.50709 12.8278 7.52091C12.8393 7.53473 12.8537 7.54586 12.8699 7.55353C12.8866 7.56353 12.9066 7.5702 12.9266 7.5702C12.9465 7.57321 12.9667 7.57321 12.9866 7.5702L13.0133 7.51686L12.9166 7.46686ZM9.90994 6.72353L9.97661 6.25686L10.1166 6.2802L10.1533 6.60686L10.2833 6.30686L10.4233 6.32686L10.3566 6.78686L10.2666 6.77353L10.3233 6.4102L10.1766 6.7602L10.0866 6.74686L10.0499 6.3702L9.99661 6.73686L9.90994 6.72353ZM9.43994 6.66686L9.48327 6.2002L9.82661 6.23353L9.81994 6.31353L9.56994 6.2902L9.55994 6.3902L9.79327 6.41353L9.78327 6.49353L9.54994 6.4702L9.53994 6.59686L9.79994 6.6202L9.79327 6.7002L9.43994 6.66686Z" fill="#309E3A"/>
<path d="M7.88312 6.37672C7.88312 6.32672 7.89312 6.29005 7.90645 6.25672C7.91814 6.23301 7.93394 6.21157 7.95312 6.19339C7.97021 6.17614 7.99062 6.16254 8.01312 6.15339C8.04645 6.14339 8.07978 6.13672 8.11312 6.13672C8.18312 6.13672 8.23645 6.16339 8.27978 6.20339C8.30041 6.22887 8.31575 6.2582 8.32491 6.28968C8.33407 6.32116 8.33686 6.35415 8.33312 6.38672C8.33312 6.46005 8.30978 6.52005 8.26645 6.56338C8.24418 6.58397 8.21784 6.59965 8.18913 6.60941C8.16042 6.61917 8.12998 6.6228 8.09978 6.62005C8.06999 6.62035 8.04045 6.6146 8.01294 6.60314C7.98544 6.59168 7.96055 6.57475 7.93978 6.55339C7.89831 6.50429 7.87793 6.44078 7.88312 6.37672Z" fill="#309E3A"/>
<path d="M7.97998 6.37686C7.97998 6.42686 7.98998 6.46686 8.01331 6.49686C8.03665 6.52352 8.06665 6.54019 8.10665 6.54019C8.12395 6.5414 8.14131 6.53874 8.15745 6.5324C8.1736 6.52605 8.18813 6.51619 8.19998 6.50353C8.22331 6.47686 8.23331 6.43686 8.23665 6.38019C8.23665 6.32686 8.22998 6.28686 8.20331 6.26019C8.19246 6.24676 8.17875 6.2359 8.16319 6.22841C8.14762 6.22091 8.13059 6.21697 8.11331 6.21686C8.09578 6.2163 8.07833 6.21959 8.06221 6.2265C8.04608 6.23341 8.03167 6.24377 8.01998 6.25686C7.99331 6.28352 7.98331 6.32352 7.97998 6.37686Z" fill="#F7FFFF"/>
<path d="M8.43311 6.61657L8.43977 6.1499H8.63977C8.68977 6.1499 8.72311 6.15657 8.74644 6.16657C8.76977 6.17324 8.78644 6.1899 8.79977 6.2099C8.81311 6.2299 8.81977 6.25657 8.81977 6.28657C8.82003 6.31864 8.80812 6.34961 8.78644 6.37324C8.7618 6.39632 8.73009 6.41041 8.69644 6.41324L8.74644 6.45324C8.75977 6.46657 8.77644 6.49324 8.79644 6.5299L8.85311 6.62324H8.73977L8.67311 6.51657L8.62644 6.4499C8.61836 6.44073 8.60801 6.43383 8.59644 6.4299C8.58128 6.42548 8.56557 6.42324 8.54977 6.42324H8.52977V6.61657H8.43311Z" fill="#309E3A"/>
<path d="M8.5332 6.34998H8.59987C8.64654 6.34998 8.67654 6.34998 8.68654 6.34331C8.69654 6.34331 8.70654 6.33331 8.7132 6.32665C8.71987 6.31998 8.7232 6.30331 8.7232 6.29331C8.7232 6.27331 8.71987 6.25998 8.70987 6.25331C8.7032 6.24331 8.68987 6.23665 8.67654 6.23331H8.60987L8.5332 6.22998V6.34665V6.34998Z" fill="white"/>
<path d="M8.96669 6.17334L9.14003 6.18334C9.17669 6.18334 9.20669 6.18667 9.22669 6.19334C9.25264 6.20275 9.27564 6.21885 9.29336 6.24001C9.31256 6.26331 9.32624 6.29066 9.33336 6.32001C9.34336 6.35001 9.34669 6.38667 9.34336 6.43001C9.34333 6.46403 9.3377 6.49781 9.32669 6.53001C9.31336 6.56334 9.29336 6.59001 9.27003 6.61001C9.25061 6.62601 9.22781 6.6374 9.20336 6.64334C9.18336 6.65001 9.15336 6.65001 9.12003 6.65001L8.94336 6.64001L8.96669 6.17334Z" fill="#309E3A"/>
<path d="M9.05671 6.25684L9.04004 6.56684H9.16671C9.18337 6.56684 9.19671 6.56017 9.20671 6.55017C9.21671 6.54017 9.22671 6.52684 9.23337 6.50684C9.24004 6.48684 9.24671 6.45684 9.24671 6.42017L9.24337 6.33684C9.23861 6.31926 9.22943 6.30319 9.21671 6.29017C9.20564 6.27904 9.19185 6.27099 9.17671 6.26684C9.1515 6.26122 9.12584 6.25788 9.10004 6.25684H9.05671Z" fill="white"/>
<path d="M11.2529 7.00656L11.3629 6.55322L11.5096 6.58656L11.6163 6.61989C11.6396 6.63322 11.6596 6.65322 11.6696 6.68322C11.6829 6.70989 11.6829 6.73989 11.6763 6.77656C11.6696 6.80322 11.6596 6.82656 11.6429 6.84322C11.6307 6.85786 11.6154 6.86963 11.5981 6.87769C11.5808 6.88576 11.562 6.88992 11.5429 6.88989C11.5196 6.88989 11.4863 6.88322 11.4429 6.87322L11.3863 6.85656L11.3463 7.02989L11.2529 7.00656Z" fill="#309E3A"/>
<path d="M11.4329 6.65332L11.4062 6.77999L11.4563 6.79332C11.4896 6.79999 11.5162 6.80665 11.5296 6.80332C11.5426 6.80152 11.5546 6.79575 11.5642 6.78679C11.5737 6.77784 11.5803 6.76614 11.5829 6.75332C11.5829 6.73665 11.5829 6.72332 11.5762 6.70999C11.5689 6.69644 11.5572 6.68584 11.5429 6.67999L11.4796 6.66332L11.4362 6.65332H11.4329Z" fill="white"/>
<path d="M11.6865 7.13678L11.8432 6.69678L12.0265 6.76344C12.0765 6.78011 12.1065 6.79678 12.1265 6.81011C12.1432 6.82678 12.1565 6.84344 12.1599 6.87011C12.1632 6.89678 12.1665 6.92011 12.1599 6.94678C12.1465 6.98011 12.1265 7.00344 12.0999 7.02011C12.0732 7.03344 12.0399 7.03678 11.9999 7.03011C12.0132 7.04678 12.0265 7.06344 12.0332 7.08344L12.0599 7.17344L12.0799 7.27678L11.9765 7.24011L11.9432 7.12011C11.9371 7.09297 11.9293 7.06625 11.9199 7.04011C11.9154 7.02974 11.9086 7.02059 11.8999 7.01344C11.8932 7.00344 11.8799 6.99678 11.8565 6.99011L11.8399 6.98344L11.7732 7.17011L11.6865 7.13678Z" fill="#309E3A"/>
<path d="M11.8666 6.91322L11.9299 6.93656C11.9733 6.95322 11.9999 6.95989 12.0133 6.95989C12.0233 6.95989 12.0333 6.95989 12.0433 6.94989C12.0533 6.94322 12.0599 6.93322 12.0633 6.91989C12.0699 6.90656 12.0699 6.89322 12.0633 6.87989C12.0584 6.86697 12.0489 6.8563 12.0366 6.84989L11.9699 6.82656L11.9033 6.80322L11.8633 6.91322H11.8666Z" fill="white"/>
<path d="M12.2332 7.11994C12.2447 7.08091 12.264 7.04462 12.2899 7.01327C12.3067 6.99316 12.3271 6.97623 12.3499 6.96327C12.3705 6.9516 12.3931 6.9437 12.4166 6.93994C12.4499 6.93994 12.4832 6.93994 12.5199 6.95328C12.5497 6.96065 12.5776 6.97427 12.6017 6.99323C12.6258 7.01219 12.6457 7.03607 12.6599 7.06327C12.6866 7.11661 12.6866 7.17994 12.6666 7.25328C12.6501 7.31628 12.6093 7.3702 12.5532 7.40328C12.5032 7.43328 12.4432 7.43661 12.3799 7.41661C12.3502 7.40904 12.3224 7.39535 12.2983 7.3764C12.2742 7.35746 12.2543 7.33369 12.2399 7.30661C12.2265 7.27747 12.2191 7.24597 12.2179 7.21394C12.2168 7.18191 12.222 7.14996 12.2332 7.11994Z" fill="#309E3A"/>
<path d="M12.3267 7.14667C12.3134 7.19667 12.31 7.24001 12.3267 7.27334C12.3434 7.30667 12.3667 7.32667 12.4034 7.34001C12.4367 7.35001 12.47 7.34667 12.5034 7.32667C12.5367 7.31001 12.5567 7.27334 12.5734 7.22001C12.59 7.17001 12.59 7.13001 12.5734 7.09667C12.5668 7.08086 12.5568 7.06669 12.5441 7.05517C12.5315 7.04364 12.5164 7.03505 12.5 7.03001C12.4836 7.02434 12.4662 7.02231 12.449 7.02403C12.4317 7.02576 12.415 7.03121 12.4 7.04001C12.3667 7.06001 12.3434 7.09334 12.3267 7.14667Z" fill="white"/>
<path d="M13.1431 7.76978L13.3564 7.35645L13.5331 7.44645C13.5664 7.46242 13.5968 7.48383 13.6231 7.50978C13.6397 7.52645 13.6497 7.54645 13.6497 7.57311C13.6497 7.59978 13.6497 7.62311 13.6364 7.64645C13.6236 7.67642 13.5997 7.7003 13.5697 7.71311C13.5364 7.71978 13.5031 7.71978 13.4664 7.70645C13.4797 7.72645 13.4864 7.74645 13.4931 7.76311C13.4997 7.78311 13.5031 7.81311 13.5064 7.85645L13.5131 7.96311L13.4131 7.91311L13.3997 7.78978C13.3982 7.76182 13.3948 7.73399 13.3897 7.70645C13.3875 7.69398 13.3817 7.68241 13.3731 7.67311L13.3331 7.64978L13.3164 7.63978L13.2264 7.81311L13.1431 7.76978Z" fill="#309E3A"/>
<path d="M13.3496 7.57298L13.4129 7.60631C13.4529 7.62631 13.4796 7.63964 13.4896 7.63964C13.4996 7.63964 13.5129 7.63964 13.5229 7.63298C13.5329 7.62964 13.5396 7.61964 13.5463 7.60631C13.5529 7.59298 13.5563 7.57964 13.5529 7.56631C13.5488 7.55304 13.5407 7.54138 13.5296 7.53298C13.5101 7.521 13.4901 7.50988 13.4696 7.49964L13.4029 7.46631L13.3496 7.57298Z" fill="white"/>
<path d="M14.8698 8.6233C14.8914 8.58903 14.9197 8.55953 14.9531 8.53663C14.9756 8.52228 15.0004 8.51211 15.0265 8.50663C15.0507 8.50169 15.0756 8.50169 15.0998 8.50663C15.1331 8.5133 15.1631 8.52663 15.1931 8.54663C15.2191 8.56279 15.2414 8.58418 15.2586 8.60943C15.2758 8.63469 15.2876 8.66325 15.2931 8.6933C15.3031 8.74997 15.2865 8.8133 15.2465 8.87663C15.213 8.93172 15.1591 8.97128 15.0965 8.98663C15.0666 8.99308 15.0358 8.99315 15.0059 8.98683C14.976 8.98051 14.9478 8.96795 14.9231 8.94997C14.8972 8.93381 14.8749 8.91242 14.8577 8.88717C14.8405 8.86191 14.8287 8.83335 14.8231 8.8033C14.8131 8.7433 14.8298 8.6833 14.8698 8.6233Z" fill="#309E3A"/>
<path d="M14.9532 8.67662C14.9198 8.71996 14.9098 8.75996 14.9165 8.79662C14.919 8.81351 14.925 8.82967 14.9342 8.84404C14.9434 8.85841 14.9555 8.87066 14.9698 8.87996C15.0032 8.90329 15.0365 8.90996 15.0698 8.89996C15.1032 8.88996 15.1365 8.86662 15.1665 8.81996C15.1965 8.77329 15.2098 8.73329 15.2032 8.69996C15.1998 8.66662 15.1798 8.63662 15.1498 8.61329C15.1198 8.58996 15.0832 8.58662 15.0498 8.59662C15.0165 8.60329 14.9832 8.62996 14.9498 8.67662H14.9532Z" fill="white"/>
<path d="M10.7266 6.8169L10.8032 6.49023L11.0432 6.5469L11.0332 6.60023L10.8566 6.56023L10.8399 6.63357L11.0032 6.67023L10.9899 6.7269L10.8266 6.6869L10.8066 6.7769L10.9899 6.82023L10.9766 6.87357L10.7266 6.8169Z" fill="#309E3A"/>
</g>
<defs>
<clipPath id="clip0_407_4974">
<rect width="21.3333" height="16" fill="white" transform="translate(0.666504)"/>
</clipPath>
</defs>
</svg>
