<svg width="22" height="16" viewBox="0 0 22 16" fill="none" xmlns="http://www.w3.org/2000/svg">
<g clip-path="url(#clip0_600_1357)">
<rect width="21.3333" height="16" transform="translate(0.663574)" fill="white"/>
<rect x="21.9971" width="16" height="4.44444" transform="rotate(90 21.9971 0)" fill="#D80027"/>
<rect x="5.10791" width="16" height="4.44444" transform="rotate(90 5.10791 0)" fill="#D80027"/>
<path d="M7.34877 8.35256L6.88574 8.51026L9.02155 10.3995C9.18459 10.8824 8.96612 11.0237 8.82591 11.28L11.1411 10.9843L11.0856 13.3334L11.5682 13.3203L11.4606 10.9876L13.7823 11.2668C13.6388 10.9613 13.5117 10.8003 13.6421 10.314L15.7746 8.52341L15.4029 8.38541C15.0964 8.14885 15.5333 7.24533 15.5985 6.67365C15.5985 6.67365 14.3562 7.10405 14.2747 6.87735L13.9551 6.26295L12.8236 7.51803C12.6997 7.5476 12.6475 7.49832 12.6182 7.39318L13.1399 4.77132L12.3117 5.24115C12.2432 5.274 12.1747 5.24772 12.1291 5.16558L11.3302 3.55566L10.5085 5.22801C10.4465 5.28715 10.3846 5.29372 10.3324 5.25429L9.54328 4.80746L10.0194 7.40632C9.98022 7.51146 9.88892 7.53774 9.78458 7.48189L8.69874 6.24324C8.55852 6.47323 8.46396 6.84449 8.27483 6.92992C8.08897 7.00877 7.45964 6.77221 7.039 6.68022C7.18247 7.20262 7.63246 8.07 7.34877 8.35584V8.35256Z" fill="#D80027"/>
</g>
<defs>
<clipPath id="clip0_600_1357">
<rect width="21.3333" height="16" fill="white" transform="translate(0.663574)"/>
</clipPath>
</defs>
</svg>
