<svg width="22" height="16" viewBox="0 0 22 16" fill="none" xmlns="http://www.w3.org/2000/svg">
<path d="M0 0H21.3333V5.33333H0V0Z" fill="#FF9933"/>
<path d="M0 5.3335H21.3333V10.6668H0V5.3335Z" fill="white"/>
<path d="M0 10.6665H21.3333V15.9998H0V10.6665Z" fill="#128807"/>
<path d="M10.667 10.1334C11.8452 10.1334 12.8004 9.17824 12.8004 8.00003C12.8004 6.82183 11.8452 5.8667 10.667 5.8667C9.48882 5.8667 8.53369 6.82183 8.53369 8.00003C8.53369 9.17824 9.48882 10.1334 10.667 10.1334Z" fill="#000088"/>
<path d="M10.667 9.86663C11.6979 9.86663 12.5336 9.0309 12.5336 7.99997C12.5336 6.96904 11.6979 6.1333 10.667 6.1333C9.63603 6.1333 8.80029 6.96904 8.80029 7.99997C8.80029 9.0309 9.63603 9.86663 10.667 9.86663Z" fill="white"/>
<path d="M10.6668 8.37313C10.873 8.37313 11.0401 8.20598 11.0401 7.9998C11.0401 7.79361 10.873 7.62646 10.6668 7.62646C10.4606 7.62646 10.2935 7.79361 10.2935 7.9998C10.2935 8.20598 10.4606 8.37313 10.6668 8.37313Z" fill="#000088"/>
<path d="M12.5052 8.33961C12.5577 8.34653 12.606 8.30952 12.6129 8.25696C12.6198 8.20439 12.5828 8.15617 12.5302 8.14925C12.4777 8.14233 12.4294 8.17933 12.4225 8.2319C12.4156 8.28446 12.4526 8.33269 12.5052 8.33961Z" fill="#000088"/>
<path d="M10.667 9.86671L10.731 8.74671L10.667 8.21338L10.603 8.74671L10.667 9.86671Z" fill="#000088"/>
<path d="M12.3546 8.80397C12.4036 8.82426 12.4597 8.80099 12.48 8.75201C12.5003 8.70303 12.477 8.64687 12.428 8.62658C12.3791 8.60629 12.3229 8.62955 12.3026 8.67854C12.2823 8.72752 12.3056 8.78368 12.3546 8.80397Z" fill="#000088"/>
<path d="M10.1837 9.8035L10.5354 8.73823L10.6116 8.20651L10.4118 8.7051L10.1837 9.8035Z" fill="#000088"/>
<path d="M12.0887 9.21321C12.1307 9.24548 12.191 9.23755 12.2233 9.19549C12.2556 9.15342 12.2476 9.09316 12.2056 9.06088C12.1635 9.02861 12.1032 9.03654 12.071 9.0786C12.0387 9.12067 12.0466 9.18093 12.0887 9.21321Z" fill="#000088"/>
<path d="M9.73315 9.61666L10.3486 8.67871L10.5598 8.18483L10.2377 8.61471L9.73315 9.61666Z" fill="#000088"/>
<path d="M11.7264 9.54021C11.7587 9.58228 11.819 9.59021 11.861 9.55793C11.9031 9.52566 11.911 9.46539 11.8788 9.42333C11.8465 9.38127 11.7862 9.37333 11.7442 9.40561C11.7021 9.43789 11.6942 9.49815 11.7264 9.54021Z" fill="#000088"/>
<path d="M9.34687 9.3203L10.1841 8.57359L10.516 8.15121L10.0936 8.48308L9.34687 9.3203Z" fill="#000088"/>
<path d="M11.292 9.76178C11.3123 9.81076 11.3684 9.83402 11.4174 9.81373C11.4664 9.79344 11.4896 9.73729 11.4694 9.6883C11.4491 9.63932 11.3929 9.61606 11.3439 9.63635C11.2949 9.65664 11.2717 9.71279 11.292 9.76178Z" fill="#000088"/>
<path d="M9.05037 8.93385L10.0523 8.42928L10.4822 8.10718L9.98832 8.31842L9.05037 8.93385Z" fill="#000088"/>
<path d="M10.8148 9.8634C10.8218 9.91597 10.87 9.95297 10.9226 9.94605C10.9751 9.93913 11.0121 9.89091 11.0052 9.83834C10.9983 9.78578 10.9501 9.74877 10.8975 9.75569C10.8449 9.76261 10.8079 9.81084 10.8148 9.8634Z" fill="#000088"/>
<path d="M8.8639 8.48339L9.9623 8.25533L10.4609 8.05547L9.92918 8.13169L8.8639 8.48339Z" fill="#000088"/>
<path d="M10.3279 9.83818C10.321 9.89075 10.358 9.93897 10.4105 9.94589C10.4631 9.95281 10.5113 9.91581 10.5182 9.86325C10.5252 9.81068 10.4881 9.76246 10.4356 9.75554C10.383 9.74862 10.3348 9.78562 10.3279 9.83818Z" fill="#000088"/>
<path d="M8.80077 8.00004L9.92077 8.06404L10.4541 8.00004L9.92077 7.93604L8.80077 8.00004Z" fill="#000088"/>
<path d="M9.86351 9.68758C9.84322 9.73656 9.86649 9.79272 9.91547 9.81301C9.96445 9.8333 10.0206 9.81004 10.0409 9.76106C10.0612 9.71207 10.0379 9.65592 9.98894 9.63563C9.93996 9.61534 9.8838 9.6386 9.86351 9.68758Z" fill="#000088"/>
<path d="M8.86398 7.51672L9.92925 7.86841L10.461 7.94463L9.96238 7.74478L8.86398 7.51672Z" fill="#000088"/>
<path d="M9.45379 9.42168C9.42151 9.46375 9.42944 9.52401 9.47151 9.55629C9.51357 9.58856 9.57383 9.58063 9.60611 9.53856C9.63839 9.4965 9.63045 9.43624 9.58839 9.40396C9.54633 9.37169 9.48606 9.37962 9.45379 9.42168Z" fill="#000088"/>
<path d="M9.05033 7.06616L9.98828 7.68159L10.4822 7.89283L10.0523 7.57074L9.05033 7.06616Z" fill="#000088"/>
<path d="M9.12678 9.05944C9.08472 9.09171 9.07678 9.15198 9.10906 9.19404C9.14134 9.2361 9.2016 9.24404 9.24366 9.21176C9.28573 9.17949 9.29366 9.11922 9.26138 9.07716C9.22911 9.0351 9.16884 9.02716 9.12678 9.05944Z" fill="#000088"/>
<path d="M9.3467 6.67988L10.0934 7.5171L10.5158 7.84897L10.1839 7.42659L9.3467 6.67988Z" fill="#000088"/>
<path d="M8.90522 8.62498C8.85623 8.64527 8.83297 8.70142 8.85326 8.75041C8.87355 8.79939 8.92971 8.82265 8.97869 8.80236C9.02767 8.78207 9.05093 8.72592 9.03065 8.67693C9.01036 8.62795 8.9542 8.60469 8.90522 8.62498Z" fill="#000088"/>
<path d="M9.73314 6.38337L10.2377 7.38532L10.5598 7.8152L10.3486 7.32132L9.73314 6.38337Z" fill="#000088"/>
<path d="M8.80359 8.14786C8.75102 8.15478 8.71402 8.203 8.72094 8.25557C8.72786 8.30813 8.77608 8.34513 8.82865 8.33821C8.88122 8.33129 8.91822 8.28307 8.9113 8.2305C8.90438 8.17794 8.85615 8.14094 8.80359 8.14786Z" fill="#000088"/>
<path d="M10.1836 6.19691L10.4117 7.29531L10.6115 7.79391L10.5353 7.26218L10.1836 6.19691Z" fill="#000088"/>
<path d="M8.82881 7.66039C8.77624 7.65347 8.72802 7.69048 8.7211 7.74304C8.71418 7.79561 8.75118 7.84383 8.80375 7.85075C8.85631 7.85767 8.90454 7.82067 8.91146 7.7681C8.91838 7.71554 8.88137 7.66731 8.82881 7.66039Z" fill="#000088"/>
<path d="M10.667 6.13329L10.603 7.25329L10.667 7.78662L10.731 7.25329L10.667 6.13329Z" fill="#000088"/>
<path d="M8.97941 7.19603C8.93043 7.17574 8.87427 7.19901 8.85398 7.24799C8.83369 7.29697 8.85695 7.35313 8.90594 7.37342C8.95492 7.39371 9.01108 7.37045 9.03137 7.32146C9.05166 7.27248 9.0284 7.21632 8.97941 7.19603Z" fill="#000088"/>
<path d="M11.1503 6.1965L10.7986 7.26177L10.7224 7.79349L10.9222 7.2949L11.1503 6.1965Z" fill="#000088"/>
<path d="M9.24531 6.78679C9.20325 6.75452 9.14298 6.76245 9.11071 6.80451C9.07843 6.84658 9.08636 6.90684 9.12843 6.93912C9.17049 6.97139 9.23075 6.96346 9.26303 6.9214C9.29531 6.87933 9.28737 6.81907 9.24531 6.78679Z" fill="#000088"/>
<path d="M11.6008 6.38334L10.9854 7.32129L10.7742 7.81517L11.0963 7.38529L11.6008 6.38334Z" fill="#000088"/>
<path d="M9.60755 6.45979C9.57528 6.41772 9.51501 6.40979 9.47295 6.44207C9.43089 6.47434 9.42295 6.53461 9.45523 6.57667C9.48751 6.61873 9.54777 6.62667 9.58983 6.59439C9.6319 6.56211 9.63983 6.50185 9.60755 6.45979Z" fill="#000088"/>
<path d="M11.9871 6.6797L11.1499 7.42641L10.818 7.84879L11.2404 7.51692L11.9871 6.6797Z" fill="#000088"/>
<path d="M10.042 6.23822C10.0217 6.18924 9.96557 6.16598 9.91658 6.18627C9.8676 6.20656 9.84434 6.26271 9.86463 6.3117C9.88492 6.36068 9.94108 6.38394 9.99006 6.36365C10.039 6.34336 10.0623 6.28721 10.042 6.23822Z" fill="#000088"/>
<path d="M12.2836 7.06615L11.2817 7.57072L10.8518 7.89282L11.3457 7.68158L12.2836 7.06615Z" fill="#000088"/>
<path d="M10.5191 6.1366C10.5122 6.08403 10.464 6.04703 10.4114 6.05395C10.3589 6.06087 10.3219 6.10909 10.3288 6.16166C10.3357 6.21422 10.3839 6.25123 10.4365 6.24431C10.4891 6.23739 10.5261 6.18916 10.5191 6.1366Z" fill="#000088"/>
<path d="M12.4701 7.51661L11.3717 7.74467L10.8731 7.94453L11.4048 7.86831L12.4701 7.51661Z" fill="#000088"/>
<path d="M11.0061 6.16182C11.013 6.10925 10.976 6.06103 10.9235 6.05411C10.8709 6.04719 10.8227 6.08419 10.8158 6.13675C10.8088 6.18932 10.8458 6.23754 10.8984 6.24446C10.951 6.25138 10.9992 6.21438 11.0061 6.16182Z" fill="#000088"/>
<path d="M12.5332 7.99996L11.4132 7.93596L10.8799 7.99996L11.4132 8.06396L12.5332 7.99996Z" fill="#000088"/>
<path d="M11.4705 6.31242C11.4908 6.26344 11.4675 6.20728 11.4185 6.18699C11.3695 6.1667 11.3134 6.18996 11.2931 6.23894C11.2728 6.28793 11.2961 6.34408 11.345 6.36437C11.394 6.38466 11.4502 6.3614 11.4705 6.31242Z" fill="#000088"/>
<path d="M12.47 8.48328L11.4047 8.13159L10.873 8.05537L11.3716 8.25522L12.47 8.48328Z" fill="#000088"/>
<path d="M11.8802 6.57783C11.9125 6.53577 11.9045 6.4755 11.8625 6.44323C11.8204 6.41095 11.7602 6.41888 11.7279 6.46095C11.6956 6.50301 11.7035 6.56327 11.7456 6.59555C11.7877 6.62783 11.8479 6.61989 11.8802 6.57783Z" fill="#000088"/>
<path d="M12.2837 8.93335L11.3457 8.31792L10.8518 8.10668L11.2817 8.42878L12.2837 8.93335Z" fill="#000088"/>
<path d="M12.2072 6.94007C12.2493 6.9078 12.2572 6.84753 12.2249 6.80547C12.1926 6.76341 12.1324 6.75547 12.0903 6.78775C12.0483 6.82003 12.0403 6.88029 12.0726 6.92235C12.1049 6.96442 12.1651 6.97235 12.2072 6.94007Z" fill="#000088"/>
<path d="M11.9873 9.31963L11.2406 8.48241L10.8182 8.15055L11.1501 8.57292L11.9873 9.31963Z" fill="#000088"/>
<path d="M12.4288 7.37453C12.4778 7.35424 12.501 7.29809 12.4807 7.2491C12.4604 7.20012 12.4043 7.17686 12.3553 7.19715C12.3063 7.21744 12.283 7.2736 12.3033 7.32258C12.3236 7.37156 12.3798 7.39482 12.4288 7.37453Z" fill="#000088"/>
<path d="M11.6008 9.61614L11.0963 8.61419L10.7742 8.18431L10.9854 8.67819L11.6008 9.61614Z" fill="#000088"/>
<path d="M12.5304 7.85165C12.583 7.84473 12.62 7.79651 12.613 7.74395C12.6061 7.69138 12.5579 7.65438 12.5053 7.6613C12.4528 7.66822 12.4158 7.71644 12.4227 7.76901C12.4296 7.82157 12.4778 7.85858 12.5304 7.85165Z" fill="#000088"/>
<path d="M11.1504 9.8026L10.9223 8.7042L10.7225 8.2056L10.7987 8.73733L11.1504 9.8026Z" fill="#000088"/>
</svg>
