<svg width="22" height="16" viewBox="0 0 22 16" fill="none" xmlns="http://www.w3.org/2000/svg">
<g clip-path="url(#clip0_586_365)">
<path d="M21.6635 0H0.333496V16H21.6635V0Z" fill="#012169"/>
<mask id="mask0_586_365" style="mask-type:luminance" maskUnits="userSpaceOnUse" x="0" y="0" width="11" height="8">
<path d="M0.333496 0H10.9985V8H0.333496V0Z" fill="white"/>
</mask>
<g mask="url(#mask0_586_365)">
<path d="M0.333496 0L10.9985 8L0.333496 0ZM0.333496 8L10.9985 0L0.333496 8Z" fill="black"/>
<path fill-rule="evenodd" clip-rule="evenodd" d="M4.47381 4.00021L0.0952148 0.715751L0.572168 -0.715332L5.66619 3.10578L10.7602 -0.715332L11.2372 0.715751L6.85857 4.00021L11.2372 7.28467L10.7602 8.71575L5.66619 4.89464L0.572168 8.71575L0.0952148 7.28467L4.47381 4.00021Z" fill="white"/>
</g>
<mask id="mask1_586_365" style="mask-type:luminance" maskUnits="userSpaceOnUse" x="0" y="0" width="11" height="8">
<path d="M0.333496 0L5.666 4H0.333496V0ZM5.666 0H10.9985L5.666 4V0ZM5.666 4H10.9985V8L5.666 4ZM5.666 4V8H0.333496L5.666 4Z" fill="white"/>
</mask>
<g mask="url(#mask1_586_365)">
<path d="M0.333496 0L10.9985 8L0.333496 0ZM0.333496 8L10.9985 0L0.333496 8Z" fill="black"/>
<path fill-rule="evenodd" clip-rule="evenodd" d="M4.87088 3.99998L0.174316 0.477005L0.492285 -0.477051L5.6658 3.40369L10.8393 -0.477051L11.1573 0.477005L6.46072 3.99998L11.1573 7.52295L10.8393 8.47701L5.6658 4.59626L0.492285 8.47701L0.174316 7.52295L4.87088 3.99998Z" fill="#C8102E"/>
</g>
<mask id="mask2_586_365" style="mask-type:luminance" maskUnits="userSpaceOnUse" x="0" y="0" width="11" height="8">
<path d="M0.333496 0H10.9985V8H0.333496V0Z" fill="white"/>
</mask>
<g mask="url(#mask2_586_365)">
<path d="M5.666 0V8V0ZM0.333496 4H10.9985H0.333496Z" fill="black"/>
<path fill-rule="evenodd" clip-rule="evenodd" d="M4.77725 2.66667V0H6.55475V2.66667H10.9985V5.33333H6.55475V8H4.77725V5.33333H0.333496V2.66667H4.77725Z" fill="white"/>
</g>
<mask id="mask3_586_365" style="mask-type:luminance" maskUnits="userSpaceOnUse" x="0" y="0" width="11" height="8">
<path d="M0.333496 0H10.9985V8H0.333496V0Z" fill="white"/>
</mask>
<g mask="url(#mask3_586_365)">
<path d="M5.666 0V8V0ZM0.333496 4H10.9985H0.333496Z" fill="black"/>
<path fill-rule="evenodd" clip-rule="evenodd" d="M5.13275 3.2V0H6.19925V3.2H10.9985V4.8H6.19925V8H5.13275V4.8H0.333496V3.2H5.13275Z" fill="#C8102E"/>
</g>
<path d="M16.334 2.80664V3.41197L17.5447 2.80664H16.334Z" fill="white"/>
<path d="M16.5653 3.51805L16.2095 3.02832L17.5447 2.80643L16.5653 3.51805Z" fill="white"/>
<path d="M16.334 2.80664V3.41197L15.1233 2.80664H16.334Z" fill="white"/>
<path d="M16.1027 3.51805L16.4585 3.02832L15.1232 2.80643L16.1027 3.51805Z" fill="white"/>
<path d="M16.708 3.07861L16.1323 3.26567L17.0821 4.23003L16.708 3.07861Z" fill="white"/>
<path d="M16.1027 3.51805L16.4585 3.02832L17.0821 4.22966L16.1027 3.51805Z" fill="white"/>
<path d="M15.96 3.07861L16.5357 3.26567L16.3341 1.9272L15.96 3.07861Z" fill="white"/>
<path d="M16.708 3.07857L16.1323 3.26562L16.3339 1.92715L16.708 3.07857Z" fill="white"/>
<path d="M15.96 3.07861L16.5357 3.26567L15.5858 4.23003L15.96 3.07861Z" fill="white"/>
<path d="M16.5653 3.51805L16.2095 3.02832L15.5858 4.22966L16.5653 3.51805Z" fill="white"/>
<path d="M16.334 2.93994V3.33994L17.134 2.93994H16.334Z" fill="#C8102E"/>
<path d="M16.4866 3.41003L16.2515 3.08643L17.1338 2.9398L16.4866 3.41003Z" fill="#C8102E"/>
<path d="M16.334 2.93994V3.33994L15.534 2.93994H16.334Z" fill="#C8102E"/>
<path d="M16.1814 3.41003L16.4165 3.08643L15.5342 2.9398L16.1814 3.41003Z" fill="#C8102E"/>
<path d="M16.5811 3.11963L16.2006 3.24324L16.8283 3.88047L16.5811 3.11963Z" fill="#C8102E"/>
<path d="M16.1809 3.41052L16.416 3.08691L16.8281 3.88075L16.1809 3.41052Z" fill="#C8102E"/>
<path d="M16.0864 3.11963L16.4668 3.24324L16.3336 2.35878L16.0864 3.11963Z" fill="#C8102E"/>
<path d="M16.5811 3.12005L16.2007 3.24365L16.3339 2.3592L16.5811 3.12005Z" fill="#C8102E"/>
<path d="M16.0864 3.11963L16.4668 3.24324L15.8392 3.88047L16.0864 3.11963Z" fill="#C8102E"/>
<path d="M16.4866 3.41052L16.2515 3.08691L15.8394 3.88075L16.4866 3.41052Z" fill="#C8102E"/>
<path d="M19.5024 5.60449L19.5024 6.14316L20.5798 5.60449L19.5024 5.60449Z" fill="white"/>
<path d="M19.7082 6.23804L19.3916 5.80225L20.5798 5.6048L19.7082 6.23804Z" fill="white"/>
<path d="M19.5029 5.60449L19.5029 6.14316L18.4256 5.60449L19.5029 5.60449Z" fill="white"/>
<path d="M19.2971 6.23804L19.6138 5.80225L18.4256 5.6048L19.2971 6.23804Z" fill="white"/>
<path d="M19.8354 5.84668L19.3231 6.01314L20.1684 6.87128L19.8354 5.84668Z" fill="white"/>
<path d="M19.2971 6.23804L19.6138 5.80225L20.1687 6.87128L19.2971 6.23804Z" fill="white"/>
<path d="M19.1699 5.84668L19.6822 6.01314L19.5028 4.82207L19.1699 5.84668Z" fill="white"/>
<path d="M19.8355 5.84673L19.3232 6.01318L19.5026 4.82212L19.8355 5.84673Z" fill="white"/>
<path d="M19.1699 5.84668L19.6822 6.01314L18.837 6.87128L19.1699 5.84668Z" fill="white"/>
<path d="M19.7082 6.23804L19.3916 5.80225L18.8366 6.87128L19.7082 6.23804Z" fill="white"/>
<path d="M19.5029 5.73779L19.5029 6.07113L20.1696 5.73779L19.5029 5.73779Z" fill="#C8102E"/>
<path d="M19.63 6.13002L19.4341 5.86035L20.1694 5.73817L19.63 6.13002Z" fill="#C8102E"/>
<path d="M19.5024 5.73779L19.5024 6.07113L18.8358 5.73779L19.5024 5.73779Z" fill="#C8102E"/>
<path d="M19.3754 6.13002L19.5713 5.86035L18.836 5.73817L19.3754 6.13002Z" fill="#C8102E"/>
<path d="M19.7085 5.8877L19.3915 5.9907L19.9145 6.52173L19.7085 5.8877Z" fill="#C8102E"/>
<path d="M19.3754 6.13002L19.5713 5.86035L19.9147 6.52188L19.3754 6.13002Z" fill="#C8102E"/>
<path d="M19.2964 5.8877L19.6134 5.9907L19.5024 5.25366L19.2964 5.8877Z" fill="#C8102E"/>
<path d="M19.7081 5.88772L19.3911 5.99072L19.5021 5.25368L19.7081 5.88772Z" fill="#C8102E"/>
<path d="M19.2964 5.8877L19.6134 5.9907L19.0904 6.52173L19.2964 5.8877Z" fill="#C8102E"/>
<path d="M19.6295 6.13002L19.4336 5.86035L19.0902 6.52188L19.6295 6.13002Z" fill="#C8102E"/>
<path d="M13.5825 6.36523L13.5825 6.97057L14.7932 6.36523L13.5825 6.36523Z" fill="white"/>
<path d="M13.8138 7.07664L13.458 6.58691L14.7933 6.36503L13.8138 7.07664Z" fill="white"/>
<path d="M13.5825 6.36523L13.5825 6.97057L12.3719 6.36523L13.5825 6.36523Z" fill="white"/>
<path d="M13.3512 7.07664L13.707 6.58691L12.3718 6.36503L13.3512 7.07664Z" fill="white"/>
<path d="M13.9565 6.63721L13.3808 6.82427L14.3307 7.78862L13.9565 6.63721Z" fill="white"/>
<path d="M13.3512 7.07664L13.707 6.58691L14.3307 7.78825L13.3512 7.07664Z" fill="white"/>
<path d="M13.2085 6.63721L13.7842 6.82427L13.5826 5.48579L13.2085 6.63721Z" fill="white"/>
<path d="M13.9566 6.63716L13.3809 6.82422L13.5824 5.48575L13.9566 6.63716Z" fill="white"/>
<path d="M13.2085 6.63721L13.7842 6.82427L12.8344 7.78862L13.2085 6.63721Z" fill="white"/>
<path d="M13.8138 7.07664L13.458 6.58691L12.8344 7.78825L13.8138 7.07664Z" fill="white"/>
<path d="M13.5825 6.49902L13.5825 6.89902L14.3825 6.49902L13.5825 6.49902Z" fill="#C8102E"/>
<path d="M13.7351 6.96911L13.5 6.64551L14.3823 6.49889L13.7351 6.96911Z" fill="#C8102E"/>
<path d="M13.5825 6.49902L13.5825 6.89902L12.7825 6.49902L13.5825 6.49902Z" fill="#C8102E"/>
<path d="M13.4299 6.96911L13.665 6.64551L12.7827 6.49889L13.4299 6.96911Z" fill="#C8102E"/>
<path d="M13.8296 6.67871L13.4492 6.80232L14.0768 7.43956L13.8296 6.67871Z" fill="#C8102E"/>
<path d="M13.4294 6.9696L13.6646 6.646L14.0767 7.43983L13.4294 6.9696Z" fill="#C8102E"/>
<path d="M13.335 6.67871L13.7154 6.80232L13.5822 5.91787L13.335 6.67871Z" fill="#C8102E"/>
<path d="M13.8296 6.67913L13.4492 6.80273L13.5824 5.91828L13.8296 6.67913Z" fill="#C8102E"/>
<path d="M13.335 6.67871L13.7154 6.80232L13.0877 7.43956L13.335 6.67871Z" fill="#C8102E"/>
<path d="M13.7351 6.9696L13.5 6.646L13.0879 7.43983L13.7351 6.9696Z" fill="#C8102E"/>
<path d="M16.334 12.3633V13.0353L17.678 12.3633H16.334Z" fill="white"/>
<path d="M16.5908 13.1535L16.1958 12.6099L17.6781 12.3635L16.5908 13.1535Z" fill="white"/>
<path d="M16.334 12.3633V13.0353L14.99 12.3633H16.334Z" fill="white"/>
<path d="M16.0772 13.1535L16.4722 12.6099L14.9899 12.3635L16.0772 13.1535Z" fill="white"/>
<path d="M16.7495 12.665L16.1104 12.8727L17.1648 13.9433L16.7495 12.665Z" fill="white"/>
<path d="M16.0772 13.1535L16.4722 12.6099L17.1645 13.9435L16.0772 13.1535Z" fill="white"/>
<path d="M15.9185 12.6655L16.5576 12.8732L16.3338 11.3873L15.9185 12.6655Z" fill="white"/>
<path d="M16.7495 12.6654L16.1104 12.873L16.3341 11.3872L16.7495 12.6654Z" fill="white"/>
<path d="M15.9185 12.665L16.5576 12.8727L15.5031 13.9433L15.9185 12.665Z" fill="white"/>
<path d="M16.5908 13.1535L16.1958 12.6099L15.5035 13.9435L16.5908 13.1535Z" fill="white"/>
<path d="M16.334 12.4966V12.9632L17.2673 12.4966H16.334Z" fill="#C8102E"/>
<path d="M16.5121 13.0455L16.2378 12.668L17.2672 12.4969L16.5121 13.0455Z" fill="#C8102E"/>
<path d="M16.3335 12.4966V12.9632L15.4002 12.4966H16.3335Z" fill="#C8102E"/>
<path d="M16.1554 13.0455L16.4297 12.668L15.4003 12.4969L16.1554 13.0455Z" fill="#C8102E"/>
<path d="M16.6221 12.7065L16.1782 12.8508L16.9105 13.5942L16.6221 12.7065Z" fill="#C8102E"/>
<path d="M16.1554 13.0455L16.4297 12.668L16.9105 13.5941L16.1554 13.0455Z" fill="#C8102E"/>
<path d="M16.0454 12.7065L16.4892 12.8508L16.3338 11.8189L16.0454 12.7065Z" fill="#C8102E"/>
<path d="M16.6225 12.7064L16.1787 12.8506L16.3341 11.8187L16.6225 12.7064Z" fill="#C8102E"/>
<path d="M16.0454 12.7065L16.4892 12.8508L15.757 13.5942L16.0454 12.7065Z" fill="#C8102E"/>
<path d="M16.5121 13.0455L16.2378 12.668L15.757 13.5941L16.5121 13.0455Z" fill="#C8102E"/>
</g>
<defs>
<clipPath id="clip0_586_365">
<rect width="21.33" height="16" fill="white" transform="translate(0.333496)"/>
</clipPath>
</defs>
</svg>
