<svg width="22" height="16" viewBox="0 0 22 16" fill="none" xmlns="http://www.w3.org/2000/svg">
<g clip-path="url(#clip0_600_1374)">
<path d="M-2.71729 0H29.7856V16H-2.71729V0Z" fill="#FF0000"/>
<path d="M-2.71729 0H29.7856V10.6667H-2.71729V0Z" fill="#0000FF"/>
<path d="M-2.71729 0H29.7856V5.33333H-2.71729V0Z" fill="white"/>
<path d="M3.4382 3.07499C4.05913 2.80562 4.73024 2.6665 5.40878 2.6665C6.08732 2.6665 6.75842 2.80562 7.37936 3.07499C7.58519 5.94072 6.92833 7.56494 5.40878 7.94765C3.88923 7.56494 3.23237 5.94072 3.4382 3.07499Z" fill="#0000FF"/>
<path d="M5.40873 3.58984L5.46836 3.723L5.6153 3.70727L5.52799 3.82469L5.6153 3.94211L5.46836 3.92638L5.40873 4.05953L5.34909 3.92638L5.20215 3.94211L5.28946 3.82469L5.20215 3.70727L5.34909 3.723" fill="#FFFF00"/>
<path d="M4.85208 2.85938L4.91172 2.99253L5.05866 2.9768L4.97135 3.09422L5.05866 3.21164L4.91172 3.19591L4.85208 3.32906L4.79245 3.19591L4.64551 3.21164L4.73282 3.09422L4.64551 2.9768L4.79245 2.99253" fill="#FFFF00"/>
<path d="M5.96537 2.85938L6.025 2.99253L6.17194 2.9768L6.08463 3.09422L6.17194 3.21164L6.025 3.19591L5.96537 3.32906L5.90573 3.19591L5.75879 3.21164L5.8461 3.09422L5.75879 2.9768L5.90573 2.99253" fill="#FFFF00"/>
<path d="M5.40908 4.34668L5.88615 5.28606L6.20419 4.86856L6.99931 5.91231C6.99931 5.9608 6.99244 6.00905 6.97891 6.05568C6.8699 6.43132 6.67019 6.77541 6.39683 7.0586C6.12348 7.34178 5.78458 7.55565 5.40908 7.68194C5.03357 7.55565 4.69468 7.34178 4.42132 7.0586C4.14796 6.77541 3.94826 6.43132 3.83924 6.05568C3.82571 6.00905 3.81885 5.9608 3.81885 5.91231L4.61396 4.86856L4.93201 5.28606L5.40908 4.34668Z" fill="white"/>
<path d="M3.83924 6.05566C3.86138 6.13193 3.90088 6.20223 3.95475 6.26122C4.00862 6.32021 4.07543 6.36633 4.15012 6.39608C4.22481 6.42583 4.3054 6.43842 4.38577 6.43291C4.46615 6.42739 4.54419 6.40391 4.61396 6.36425C4.69454 6.31845 4.78595 6.29433 4.879 6.29433C4.97205 6.29433 5.06346 6.31845 5.14404 6.36425C5.22462 6.41006 5.31603 6.43417 5.40908 6.43417C5.50213 6.43417 5.59353 6.41006 5.67412 6.36425C5.7547 6.31845 5.84611 6.29433 5.93915 6.29433C6.0322 6.29433 6.12361 6.31845 6.20419 6.36425C6.27397 6.40391 6.35201 6.42739 6.43238 6.43291C6.51275 6.43842 6.59335 6.42583 6.66804 6.39608C6.74272 6.36633 6.80954 6.32021 6.86341 6.26122C6.91728 6.20223 6.95678 6.13193 6.97891 6.05566L6.99931 6.06295V6.44499C6.90626 6.44499 6.81485 6.4691 6.73427 6.5149C6.65369 6.56071 6.56228 6.58482 6.46923 6.58482C6.37618 6.58482 6.28478 6.56071 6.20419 6.5149C6.12361 6.4691 6.0322 6.44499 5.93915 6.44499C5.84611 6.44499 5.7547 6.4691 5.67412 6.5149C5.59353 6.56071 5.50213 6.58482 5.40908 6.58482C5.31603 6.58482 5.22462 6.56071 5.14404 6.5149C5.06346 6.4691 4.97205 6.44499 4.879 6.44499C4.78595 6.44499 4.69454 6.4691 4.61396 6.5149C4.53338 6.56071 4.44197 6.58482 4.34892 6.58482C4.25588 6.58482 4.16447 6.56071 4.08389 6.5149C4.0033 6.4691 3.9119 6.44499 3.81885 6.44499V6.06295" fill="#0000FF"/>
<path d="M3.83924 6.35693C3.86138 6.4332 3.90088 6.5035 3.95475 6.56249C4.00862 6.62147 4.07543 6.6676 4.15012 6.69734C4.22481 6.72709 4.3054 6.73969 4.38577 6.73418C4.46615 6.72866 4.54419 6.70518 4.61396 6.66552C4.69454 6.61972 4.78595 6.5956 4.879 6.5956C4.97205 6.5956 5.06346 6.61972 5.14404 6.66552C5.22462 6.71133 5.31603 6.73544 5.40908 6.73544C5.50213 6.73544 5.59353 6.71133 5.67412 6.66552C5.7547 6.61972 5.84611 6.5956 5.93915 6.5956C6.0322 6.5956 6.12361 6.61972 6.20419 6.66552C6.27397 6.70518 6.35201 6.72866 6.43238 6.73418C6.51275 6.73969 6.59335 6.72709 6.66804 6.69734C6.74272 6.6676 6.80954 6.62147 6.86341 6.56249C6.91728 6.5035 6.95678 6.4332 6.97891 6.35693L6.99931 6.36422V6.74626C6.90626 6.74626 6.81485 6.77037 6.73427 6.81617C6.65369 6.86198 6.56228 6.88609 6.46923 6.88609C6.37618 6.88609 6.28478 6.86198 6.20419 6.81617C6.12361 6.77037 6.0322 6.74626 5.93915 6.74626C5.84611 6.74626 5.7547 6.77037 5.67412 6.81617C5.59353 6.86198 5.50213 6.88609 5.40908 6.88609C5.31603 6.88609 5.22462 6.86198 5.14404 6.81617C5.06346 6.77037 4.97205 6.74626 4.879 6.74626C4.78595 6.74626 4.69454 6.77037 4.61396 6.81617C4.53338 6.86198 4.44197 6.88609 4.34892 6.88609C4.25588 6.88609 4.16447 6.86198 4.08389 6.81617C4.0033 6.77037 3.9119 6.74626 3.81885 6.74626V6.36422" fill="#0000FF"/>
<path d="M3.28857 3.14314C3.33809 3.11967 3.38801 3.09701 3.4383 3.0752L3.59577 5.55143C3.62865 6.06851 3.81932 6.56376 4.14283 6.97239C4.46633 7.38101 4.9076 7.68396 5.40888 7.84159C5.91016 7.68396 6.35143 7.38101 6.67494 6.97239C6.99844 6.56376 7.18911 6.06851 7.22199 5.55143L7.37946 3.0752C7.42975 3.09701 7.47967 3.11967 7.52919 3.14314L7.37544 5.56089C7.3401 6.11659 7.13267 6.64829 6.78106 7.08439C6.42946 7.52049 5.95057 7.84005 5.40888 8.00004C4.86719 7.84005 4.38831 7.52049 4.0367 7.08439C3.6851 6.64829 3.47766 6.11659 3.44232 5.56089L3.28857 3.14314Z" fill="#FF0000"/>
</g>
<defs>
<clipPath id="clip0_600_1374">
<rect width="21.33" height="16" fill="white" transform="translate(0.330078)"/>
</clipPath>
</defs>
</svg>
