<svg width="22" height="16" viewBox="0 0 22 16" fill="none" xmlns="http://www.w3.org/2000/svg">
<g clip-path="url(#clip0_407_4852)">
<path fill-rule="evenodd" clip-rule="evenodd" d="M0 0H30.4V1.23333H0V0ZM0 2.46333H30.4V3.69667H0V2.46333ZM0 4.92333H30.4V6.15667H0V4.92333ZM0 7.38333H30.4V8.61667H0V7.38333ZM0 9.85H30.4V11.0767H0V9.85ZM0 12.3067H30.4V13.54H0V12.3067ZM0 14.7667H30.4V16H0V14.7667Z" fill="#BD3D44"/>
<path fill-rule="evenodd" clip-rule="evenodd" d="M0 1.2334H30.4V2.4634H0V1.2334ZM0 3.6934H30.4V4.9234H0V3.6934ZM0 6.1534H30.4V7.38673H0V6.1534ZM0 8.61673H30.4V9.85006H0V8.61673ZM0 11.0767H30.4V12.3101H0V11.0767ZM0 13.5367H30.4V14.7701H0V13.5367Z" fill="white"/>
<path fill-rule="evenodd" clip-rule="evenodd" d="M0 0H12.16V8.61667H0V0Z" fill="#192F5D"/>
<path fill-rule="evenodd" clip-rule="evenodd" d="M1.01346 0.366699L1.12679 0.710033H1.48012L1.19346 0.920033L1.30346 1.26337L1.01346 1.05003L0.72679 1.26003L0.833457 0.920033L0.543457 0.710033H0.90679L1.01346 0.366699ZM3.04012 0.366699L3.15012 0.710033H3.51012L3.22012 0.920033L3.32679 1.26337L3.04012 1.05003L2.75012 1.26003L2.86012 0.920033L2.57346 0.710033H2.92679L3.04012 0.366699ZM5.06679 0.366699L5.17679 0.710033H5.53346L5.24679 0.920033L5.35679 1.26337L5.06679 1.05003L4.77679 1.26003L4.88679 0.920033L4.59679 0.710033H4.95679L5.06679 0.366699ZM7.09346 0.366699L7.20346 0.710033H7.56346L7.27346 0.920033L7.38346 1.26337L7.09346 1.05003L6.80346 1.26003L6.91679 0.920033L6.62346 0.710033H6.98012L7.09346 0.366699ZM9.12012 0.366699L9.23012 0.710033H9.58679L9.30012 0.920033L9.41012 1.26337L9.12012 1.05003L8.83012 1.26003L8.94012 0.920033L8.65346 0.710033H9.01012L9.12012 0.366699ZM11.1468 0.366699L11.2568 0.710033H11.6168L11.3235 0.920033L11.4368 1.26337L11.1468 1.05003L10.8568 1.26003L10.9701 0.920033L10.6768 0.710033H11.0368L11.1468 0.366699ZM2.02679 1.23337L2.13679 1.57337H2.50012L2.21012 1.78003L2.31679 2.12337L2.03346 1.91337L1.74346 2.12337L1.84679 1.78003L1.56679 1.57337H1.92346L2.02679 1.23337ZM4.05346 1.23337L4.16679 1.57337H4.52346L4.23012 1.78003L4.34346 2.12337L4.05346 1.91337L3.76346 2.12337L3.87346 1.78003L3.58346 1.57337H3.94346L4.05346 1.23337ZM6.08012 1.23337L6.19012 1.57337H6.55012L6.26012 1.78003L6.37012 2.12337L6.08012 1.91337L5.79012 2.12337L5.90012 1.78003L5.61346 1.57337H5.96679L6.08012 1.23337ZM8.10679 1.23337L8.22012 1.57337H8.57679L8.28346 1.78003L8.39679 2.12337L8.10679 1.91337L7.82012 2.12337L7.92679 1.78003L7.63679 1.57337H8.00012L8.10679 1.23337ZM10.1335 1.23337L10.2435 1.57337H10.6035L10.3135 1.78003L10.4235 2.12337L10.1335 1.91337L9.84346 2.12337L9.95346 1.78003L9.66679 1.57337H10.0235L10.1335 1.23337ZM1.01346 2.0867L1.12679 2.43337H1.48012L1.19346 2.64337L1.30346 2.98337L1.01346 2.77337L0.72679 2.98337L0.833457 2.64337L0.543457 2.43337H0.90679L1.01346 2.0867ZM3.04012 2.0867L3.15012 2.43337H3.51012L3.22012 2.64337L3.32679 2.98337L3.04012 2.77337L2.75012 2.98337L2.86012 2.64003L2.57346 2.43003H2.92679L3.04012 2.0867ZM5.06679 2.0867L5.17679 2.43003H5.53346L5.24679 2.64003L5.35679 2.98003L5.06679 2.77003L4.77679 2.98003L4.88679 2.6367L4.59679 2.4267H4.95679L5.06679 2.0867ZM7.09346 2.0867L7.20346 2.43003H7.56346L7.27346 2.64003L7.38346 2.98003L7.09346 2.77003L6.80346 2.98003L6.91679 2.6367L6.62346 2.4267H6.98012L7.09346 2.0867ZM9.12012 2.0867L9.23012 2.43003H9.58679L9.30012 2.64003L9.41012 2.98003L9.12012 2.77003L8.83012 2.98003L8.94012 2.6367L8.65346 2.4267H9.01012L9.12012 2.0867ZM11.1468 2.0867L11.2568 2.43003H11.6168L11.3235 2.64003L11.4368 2.98003L11.1468 2.77003L10.8568 2.98003L10.9701 2.6367L10.6768 2.4267H11.0368L11.1468 2.0867ZM2.02679 2.95337L2.13679 3.29337H2.50012L2.21012 3.50337L2.32012 3.8467L2.03012 3.63337L1.74012 3.84337L1.85012 3.50337L1.56346 3.29337H1.92012L2.02679 2.95337ZM4.05346 2.95337L4.16679 3.29337H4.52346L4.23012 3.50337L4.34346 3.8467L4.05346 3.63337L3.76346 3.84337L3.87346 3.50337L3.58346 3.29337H3.94346L4.05346 2.95337ZM6.08012 2.95337L6.19012 3.29337H6.55012L6.26012 3.50337L6.37012 3.8467L6.08012 3.63337L5.79012 3.84337L5.90012 3.50337L5.61346 3.29337H5.96679L6.08012 2.95337ZM8.10679 2.95337L8.22012 3.29337H8.57679L8.28679 3.50337L8.39679 3.8467L8.10679 3.63337L7.82012 3.84337L7.92679 3.50337L7.63679 3.29337H8.00012L8.10679 2.95337ZM10.1335 2.95337L10.2435 3.29337H10.6035L10.3135 3.50337L10.4235 3.8467L10.1335 3.63337L9.84346 3.84337L9.95346 3.50337L9.66679 3.29337H10.0235L10.1335 2.95337ZM1.01346 3.8167L1.12679 4.1567H1.48012L1.19346 4.3667L1.30346 4.71003L1.01346 4.4967L0.72679 4.7067L0.833457 4.3667L0.543457 4.1567H0.90679L1.01346 3.8167ZM3.04012 3.8167L3.15012 4.1567H3.51012L3.22012 4.3667L3.32679 4.7067L3.04012 4.4967L2.75012 4.7067L2.86012 4.3667L2.57346 4.1567H2.92679L3.04012 3.8167ZM5.06679 3.8167L5.17679 4.1567H5.53346L5.24679 4.3667L5.35679 4.71003L5.06679 4.4967L4.77679 4.7067L4.88679 4.3667L4.59679 4.1567H4.95679L5.06679 3.8167ZM7.09346 3.8167L7.20346 4.1567H7.56346L7.27346 4.3667L7.38346 4.71003L7.09346 4.4967L6.80346 4.7067L6.91679 4.3667L6.62346 4.1567H6.98012L7.09346 3.8167ZM9.12012 3.8167L9.23012 4.1567H9.58679L9.30012 4.3667L9.41012 4.71003L9.12012 4.4967L8.83012 4.7067L8.94012 4.3667L8.65346 4.1567H9.01012L9.12012 3.8167ZM11.1468 3.8167L11.2568 4.1567H11.6168L11.3235 4.3667L11.4368 4.71003L11.1468 4.4967L10.8568 4.7067L10.9668 4.3667L10.6735 4.1567H11.0335L11.1468 3.8167ZM2.02679 4.6767L2.13679 5.02003H2.50012L2.21012 5.2267L2.32012 5.57003L2.03012 5.3567L1.74012 5.57003L1.85012 5.2267L1.56346 5.0167H1.92012L2.02679 4.6767ZM4.05346 4.6767L4.16679 5.02003H4.52346L4.23012 5.2267L4.34346 5.57003L4.05346 5.3567L3.76346 5.57003L3.87346 5.2267L3.58346 5.0167H3.94346L4.05346 4.6767ZM6.08012 4.6767L6.19012 5.02003H6.55012L6.26012 5.2267L6.37012 5.57003L6.08012 5.3567L5.79012 5.57003L5.90012 5.2267L5.61346 5.0167H5.96679L6.08012 4.6767ZM8.10679 4.6767L8.22012 5.02003H8.57679L8.28679 5.2267L8.39679 5.57003L8.10679 5.3567L7.82012 5.57003L7.92679 5.2267L7.63679 5.0167H8.00012L8.10679 4.6767ZM10.1335 4.6767L10.2435 5.02003H10.6035L10.3135 5.2267L10.4235 5.57003L10.1335 5.3567L9.84346 5.57003L9.95346 5.2267L9.66679 5.0167H10.0235L10.1335 4.6767ZM1.01346 5.5367L1.12679 5.88003H1.48012L1.19346 6.09003L1.30346 6.4267L1.01346 6.22003L0.72679 6.4267L0.833457 6.0867L0.543457 5.8767H0.90679L1.01346 5.5367ZM3.04012 5.5367L3.15012 5.88003H3.51012L3.22012 6.09003L3.33012 6.4267L3.04012 6.22003L2.75012 6.4267L2.86346 6.0867L2.57346 5.8767H2.92679L3.04012 5.5367ZM5.06679 5.5367L5.17679 5.88003H5.53346L5.24679 6.09003L5.35679 6.4267L5.06679 6.22003L4.77679 6.4267L4.88679 6.0867L4.59679 5.8767H4.95679L5.06679 5.5367ZM7.09346 5.5367L7.20346 5.88003H7.56346L7.27346 6.09003L7.38346 6.4267L7.09346 6.22003L6.80346 6.4267L6.91679 6.0867L6.62346 5.8767H6.98012L7.09346 5.5367ZM9.12012 5.5367L9.23012 5.88003H9.58679L9.30012 6.09003L9.41012 6.4267L9.12012 6.22003L8.83012 6.4267L8.94012 6.0867L8.65346 5.8767H9.01012L9.12012 5.5367ZM11.1468 5.5367L11.2568 5.88003H11.6168L11.3235 6.09003L11.4368 6.4267L11.1468 6.22003L10.8568 6.4267L10.9701 6.0867L10.6768 5.8767H11.0368L11.1468 5.5367ZM2.02679 6.40003L2.13679 6.74003H2.50012L2.21012 6.95003L2.32012 7.29337L2.03012 7.08003L1.74012 7.29003L1.85012 6.95003L1.56346 6.74003H1.92012L2.02679 6.40003ZM4.05346 6.40003L4.16679 6.74003H4.52346L4.23012 6.95003L4.34346 7.29337L4.05346 7.08003L3.76346 7.29003L3.87346 6.95003L3.58346 6.74003H3.94346L4.05346 6.40003ZM6.08012 6.40003L6.19012 6.74003H6.55012L6.26012 6.95003L6.37012 7.29337L6.08012 7.08003L5.79012 7.29003L5.90012 6.95003L5.61346 6.74003H5.96679L6.08012 6.40003ZM8.10679 6.40003L8.22012 6.74003H8.57679L8.28679 6.95003L8.39679 7.29337L8.10679 7.08003L7.82012 7.29003L7.92679 6.95003L7.63679 6.74003H8.00012L8.10679 6.40003ZM10.1335 6.40003L10.2435 6.74003H10.6035L10.3135 6.95003L10.4235 7.29337L10.1335 7.08003L9.84346 7.29003L9.95346 6.95003L9.66679 6.74003H10.0235L10.1335 6.40003ZM1.01346 7.26337L1.12679 7.60337H1.48012L1.19346 7.81337L1.30346 8.15337L1.01346 7.94337L0.72679 8.15337L0.833457 7.81003L0.543457 7.60003H0.90679L1.01346 7.26337ZM3.04012 7.26337L3.15012 7.60337H3.51012L3.22012 7.81337L3.33012 8.15337L3.04012 7.94337L2.75012 8.15337L2.86346 7.81003L2.57346 7.60003H2.92679L3.04012 7.26337ZM5.06679 7.26337L5.17679 7.60337H5.53346L5.25346 7.81337L5.36346 8.15337L5.07346 7.94337L4.78346 8.15337L4.89346 7.81003L4.60346 7.60003H4.96346L5.06679 7.26337ZM7.09346 7.26337L7.20346 7.60337H7.56346L7.27346 7.81337L7.38346 8.15337L7.09346 7.94337L6.80346 8.15337L6.91679 7.81003L6.62346 7.60003H6.98012L7.09346 7.26337ZM9.12012 7.26337L9.23012 7.60337H9.58679L9.30012 7.81337L9.41012 8.15337L9.12012 7.94337L8.83012 8.15337L8.94012 7.81003L8.65346 7.60003H9.01012L9.12012 7.26337ZM11.1468 7.26337L11.2568 7.60337H11.6168L11.3235 7.81337L11.4368 8.15337L11.1468 7.94337L10.8568 8.15337L10.9701 7.81003L10.6768 7.60003H11.0368L11.1468 7.26337Z" fill="white"/>
</g>
<defs>
<clipPath id="clip0_407_4852">
<rect width="21.3333" height="16" fill="white"/>
</clipPath>
</defs>
</svg>
