<svg width="40" height="40" viewBox="0 0 40 40" fill="none" xmlns="http://www.w3.org/2000/svg">
<path d="M16.0298 31.667L13.1573 37.412C12.9577 37.8038 12.6113 38.1008 12.1935 38.2385C11.7758 38.376 11.3207 38.3428 10.9273 38.1463C10.5339 37.9497 10.2341 37.6055 10.0934 37.189C9.95257 36.7723 9.98215 36.3168 10.1757 35.922L12.3032 31.667H3.33317C2.89114 31.667 2.46722 31.4913 2.15465 31.1788C1.8421 30.8663 1.6665 30.4423 1.6665 30.0003V6.66699C1.6665 6.22496 1.8421 5.80104 2.15465 5.48848C2.46722 5.17593 2.89114 5.00033 3.33317 5.00033H18.3332V3.33366C18.3332 2.89163 18.5088 2.46771 18.8213 2.15514C19.1338 1.84259 19.5578 1.66699 19.9998 1.66699C20.4418 1.66699 20.8658 1.84259 21.1783 2.15514C21.4908 2.46771 21.6665 2.89163 21.6665 3.33366V5.00033H36.6665C37.1085 5.00033 37.5325 5.17593 37.845 5.48848C38.1575 5.80104 38.3332 6.22496 38.3332 6.66699V30.0003C38.3332 30.4423 38.1575 30.8663 37.845 31.1788C37.5325 31.4913 37.1085 31.667 36.6665 31.667H27.6965L29.824 35.922C30.0175 36.3168 30.0472 36.7723 29.9063 37.189C29.7655 37.6055 29.4658 37.9497 29.0723 38.1463C28.679 38.3428 28.2238 38.376 27.8062 38.2385C27.3883 38.1008 27.042 37.8038 26.8423 37.412L23.9698 31.667H16.0298ZM14.9665 28.3337H34.9998V8.33366H4.99984V28.3337H14.9665Z" fill="url(#paint0_linear_418_5920)"/>
<defs>
<linearGradient id="paint0_linear_418_5920" x1="13.6932" y1="-1.85752" x2="64.9675" y2="11.5332" gradientUnits="userSpaceOnUse">
<stop stop-color="#FFBC0F"/>
<stop offset="1" stop-color="#FFDC41"/>
</linearGradient>
</defs>
</svg>
