<svg width="40" height="40" viewBox="0 0 40 40" fill="none" xmlns="http://www.w3.org/2000/svg">
<path fill-rule="evenodd" clip-rule="evenodd" d="M34.9871 11.605C34.9838 11.485 34.9488 11.3717 34.9171 11.2567C34.8921 11.16 34.8804 11.0617 34.8388 10.9733C34.8004 10.8867 34.7354 10.8167 34.6788 10.7367C34.6088 10.635 34.5454 10.5333 34.4554 10.45C34.4404 10.435 34.4338 10.415 34.4171 10.4017C34.3571 10.35 34.2838 10.3317 34.2188 10.29C34.1188 10.225 34.0204 10.1583 33.9071 10.115C33.7954 10.075 33.6854 10.065 33.5704 10.0483C33.4904 10.0367 33.4188 10 33.3338 10H25.0004C24.0788 10 23.3338 10.7467 23.3338 11.6667C23.3338 12.5867 24.0788 13.3333 25.0004 13.3333H29.7104L22.9838 21.18L15.857 16.905C15.152 16.4783 14.2453 16.635 13.7187 17.2667L5.38534 27.2667C4.797 27.9733 4.892 29.025 5.59867 29.6133C5.912 29.8733 6.28867 30 6.66534 30C7.14367 30 7.617 29.7967 7.947 29.4L15.367 20.4967L22.4754 24.7633C23.1738 25.1817 24.0704 25.035 24.5988 24.4183L31.6671 16.1717V20C31.6671 20.92 32.4121 21.6667 33.3338 21.6667C34.2554 21.6667 35.0004 20.92 35.0004 20V11.6667C35.0004 11.645 34.9888 11.6267 34.9871 11.605Z" fill="url(#paint0_linear_418_5924)"/>
<mask id="mask0_418_5924" style="mask-type:alpha" maskUnits="userSpaceOnUse" x="4" y="10" width="32" height="20">
<path fill-rule="evenodd" clip-rule="evenodd" d="M34.9871 11.605C34.9838 11.485 34.9488 11.3717 34.9171 11.2567C34.8921 11.16 34.8804 11.0617 34.8388 10.9733C34.8004 10.8867 34.7354 10.8167 34.6788 10.7367C34.6088 10.635 34.5454 10.5333 34.4554 10.45C34.4404 10.435 34.4338 10.415 34.4171 10.4017C34.3571 10.35 34.2838 10.3317 34.2188 10.29C34.1188 10.225 34.0204 10.1583 33.9071 10.115C33.7954 10.075 33.6854 10.065 33.5704 10.0483C33.4904 10.0367 33.4188 10 33.3338 10H25.0004C24.0788 10 23.3338 10.7467 23.3338 11.6667C23.3338 12.5867 24.0788 13.3333 25.0004 13.3333H29.7104L22.9838 21.18L15.857 16.905C15.152 16.4783 14.2453 16.635 13.7187 17.2667L5.38534 27.2667C4.797 27.9733 4.892 29.025 5.59867 29.6133C5.912 29.8733 6.28867 30 6.66534 30C7.14367 30 7.617 29.7967 7.947 29.4L15.367 20.4967L22.4754 24.7633C23.1738 25.1817 24.0704 25.035 24.5988 24.4183L31.6671 16.1717V20C31.6671 20.92 32.4121 21.6667 33.3338 21.6667C34.2554 21.6667 35.0004 20.92 35.0004 20V11.6667C35.0004 11.645 34.9888 11.6267 34.9871 11.605Z" fill="white"/>
</mask>
<g mask="url(#mask0_418_5924)">
<path d="M40 0H0V40H40V0Z" fill="url(#paint1_linear_418_5924)"/>
</g>
<defs>
<linearGradient id="paint0_linear_418_5924" x1="14.8398" y1="8.07693" x2="53.6948" y2="23.2935" gradientUnits="userSpaceOnUse">
<stop stop-color="#FFBC0F"/>
<stop offset="1" stop-color="#FFDC41"/>
</linearGradient>
<linearGradient id="paint1_linear_418_5924" x1="13.12" y1="-3.84615" x2="69.0578" y2="10.7579" gradientUnits="userSpaceOnUse">
<stop stop-color="#FFBC0F"/>
<stop offset="1" stop-color="#FFDC41"/>
</linearGradient>
</defs>
</svg>
