<svg width="40" height="40" viewBox="0 0 40 40" fill="none" xmlns="http://www.w3.org/2000/svg">
<path d="M34.9998 22.6667V17.3333C33.3988 17.0055 31.9295 16.2148 30.774 15.0592C29.6183 13.9037 28.8277 12.4343 28.4998 10.8333H11.4998C11.172 12.4343 10.3813 13.9037 9.22574 15.0592C8.07021 16.2148 6.60079 17.0055 4.99984 17.3333V22.6667C6.60079 22.9945 8.07021 23.7852 9.22574 24.9408C10.3813 26.0963 11.172 27.5657 11.4998 29.1667H28.4998C28.8277 27.5657 29.6183 26.0963 30.774 24.9408C31.9295 23.7852 33.3988 22.9945 34.9998 22.6667ZM34.9998 26.1175C34.2968 26.3668 33.6582 26.77 33.1307 27.2975C32.6032 27.825 32.2 28.4637 31.9507 29.1667H34.1607C34.6257 29.1667 34.9998 28.7917 34.9998 28.3267V26.1175ZM4.99984 26.1175V28.3267C4.99984 28.7925 5.37484 29.1667 5.839 29.1667H8.04901C7.79959 28.4637 7.39644 27.825 6.86894 27.2975C6.34145 26.77 5.7029 26.3668 4.99984 26.1175ZM31.9507 10.8333C32.2 11.5364 32.6032 12.175 33.1307 12.7024C33.6582 13.2299 34.2968 13.6331 34.9998 13.8825V11.6733C34.9998 11.2075 34.6248 10.8333 34.1607 10.8333H31.9507ZM8.04984 10.8333H5.839C5.374 10.8333 4.99984 11.2083 4.99984 11.6733V13.8817C5.70282 13.6323 6.3413 13.2293 6.8688 12.702C7.39629 12.1746 7.80032 11.5362 8.04984 10.8333ZM1.6665 11.6733C1.66618 11.1253 1.77387 10.5825 1.98344 10.0761C2.19299 9.56965 2.5003 9.10948 2.88782 8.7219C3.27532 8.33432 3.73542 8.02692 4.2418 7.81725C4.74819 7.60758 5.29094 7.49978 5.839 7.5H34.1607C34.7087 7.49978 35.2515 7.60758 35.7578 7.81725C36.2642 8.02692 36.7243 8.33432 37.1118 8.7219C37.4993 9.10948 37.8067 9.56965 38.0162 10.0761C38.2258 10.5825 38.3335 11.1253 38.3332 11.6733V28.3267C38.3335 28.8747 38.2258 29.4175 38.0162 29.924C37.8067 30.4303 37.4993 30.8905 37.1118 31.2782C36.7243 31.6657 36.2642 31.9732 35.7578 32.1828C35.2515 32.3923 34.7087 32.5002 34.1607 32.5H5.839C5.29094 32.5002 4.74819 32.3923 4.2418 32.1828C3.73542 31.9732 3.27532 31.6657 2.88782 31.2782C2.5003 30.8905 2.19299 30.4303 1.98344 29.924C1.77387 29.4175 1.66618 28.8747 1.6665 28.3267V11.6733ZM19.9998 26.6667C18.2317 26.6667 16.536 25.9643 15.2858 24.714C14.0356 23.4638 13.3332 21.7682 13.3332 20C13.3332 18.2318 14.0356 16.5362 15.2858 15.2859C16.536 14.0357 18.2317 13.3333 19.9998 13.3333C21.768 13.3333 23.4637 14.0357 24.7138 15.2859C25.9642 16.5362 26.6665 18.2318 26.6665 20C26.6665 21.7682 25.9642 23.4638 24.7138 24.714C23.4637 25.9643 21.768 26.6667 19.9998 26.6667ZM19.9998 23.3333C20.8838 23.3333 21.7317 22.9822 22.3568 22.357C22.982 21.7318 23.3332 20.884 23.3332 20C23.3332 19.116 22.982 18.2682 22.3568 17.643C21.7317 17.0178 20.8838 16.6667 19.9998 16.6667C19.1158 16.6667 18.268 17.0178 17.6428 17.643C17.0177 18.2682 16.6665 19.116 16.6665 20C16.6665 20.884 17.0177 21.7318 17.6428 22.357C18.268 22.9822 19.1158 23.3333 19.9998 23.3333Z" fill="url(#paint0_linear_418_5922)"/>
<defs>
<linearGradient id="paint0_linear_418_5922" x1="13.6932" y1="5.09615" x2="61.4608" y2="23.387" gradientUnits="userSpaceOnUse">
<stop stop-color="#FFBC0F"/>
<stop offset="1" stop-color="#FFDC41"/>
</linearGradient>
</defs>
</svg>
