<svg width="40" height="40" viewBox="0 0 40 40" fill="none" xmlns="http://www.w3.org/2000/svg">
<g clip-path="url(#clip0_418_5917)">
<path d="M29.0315 17.1563C30.738 17.0042 32.2809 16.7082 33.5025 16.301C34.3133 16.0307 34.9275 15.7277 35.29 15.442C35.364 15.3837 35.4182 15.3335 35.4545 15.2947V10.3859C33.1438 11.33 29.9235 11.8182 26.3636 11.8182C25.6004 11.8182 24.8525 11.7957 24.1262 11.7512C26.1607 13.1329 27.8485 14.9872 29.0315 17.1563ZM30.4215 20.6785C30.7398 21.9144 30.9091 23.2102 30.9091 24.5455C30.9091 25.0438 30.8855 25.5365 30.8395 26.0227C31.8289 25.8624 32.73 25.6495 33.5025 25.3918C34.3133 25.1216 34.9275 24.8185 35.29 24.5329C35.364 24.4747 35.4182 24.4244 35.4545 24.3856V19.4767C34.0645 20.0447 32.3455 20.4476 30.4215 20.6785ZM26.4015 35.4545C29.1353 35.4513 31.6773 35.0913 33.5025 34.4827C34.3133 34.2125 34.9275 33.9095 35.29 33.6238C35.364 33.5656 35.4182 33.5153 35.4545 33.4765V28.5676C33.9605 29.178 32.0864 29.5978 29.9862 29.8184C29.2102 31.9565 27.9756 33.8749 26.4015 35.4545ZM21.5365 38.7573C19.6698 39.5571 17.6139 40 15.4545 40C6.91924 40 0 33.0807 0 24.5455C0 16.6253 5.95787 10.0966 13.6364 9.19673V5.45455C13.6364 1.90096 19.3393 0 26.3636 0C33.388 0 39.0909 1.90096 39.0909 5.45455V33.6364C39.0909 37.19 33.388 39.0909 26.3636 39.0909C24.6555 39.0909 23.0255 38.9785 21.5365 38.7573ZM17.2727 6.20375C17.309 6.2426 17.3633 6.29282 17.4372 6.35105C17.7998 6.63678 18.414 6.9398 19.2247 7.21005C21.0585 7.82131 23.6155 8.18182 26.3636 8.18182C29.1118 8.18182 31.6687 7.82131 33.5025 7.21005C34.3133 6.9398 34.9275 6.63678 35.29 6.35105C35.364 6.29282 35.4182 6.2426 35.4545 6.20375V5.61444C35.4182 5.57558 35.364 5.52536 35.29 5.46713C34.9275 5.1814 34.3133 4.87838 33.5025 4.60813C31.6687 3.99687 29.1118 3.63636 26.3636 3.63636C23.6155 3.63636 21.0585 3.99687 19.2247 4.60813C18.414 4.87838 17.7998 5.1814 17.4372 5.46713C17.3633 5.52536 17.309 5.57558 17.2727 5.61444V6.20375ZM15.4545 36.3636C21.9816 36.3636 27.2727 31.0725 27.2727 24.5455C27.2727 18.0185 21.9816 12.7273 15.4545 12.7273C8.92755 12.7273 3.63636 18.0185 3.63636 24.5455C3.63636 31.0725 8.92755 36.3636 15.4545 36.3636Z" fill="url(#paint0_linear_418_5917)"/>
<path d="M14.4754 19.8551V31.7087C14.4754 32.2711 14.91 32.7269 15.4545 32.7269C15.9951 32.7269 16.4335 32.2667 16.4335 31.7087V19.8551L20.1468 23.7342C20.5292 24.1336 21.149 24.1336 21.5314 23.7342C21.9137 23.3347 21.9137 22.6873 21.5314 22.2878L16.1467 16.6628C15.7644 16.2634 15.1445 16.2634 14.7622 16.6628L9.37757 22.2878C8.99524 22.6873 8.99524 23.3347 9.37757 23.7342C9.75989 24.1336 10.3798 24.1336 10.7621 23.7342L14.4754 19.8551Z" fill="url(#paint1_linear_418_5917)"/>
</g>
<defs>
<linearGradient id="paint0_linear_418_5917" x1="12.8218" y1="-3.84615" x2="67.6456" y2="10.1417" gradientUnits="userSpaceOnUse">
<stop stop-color="#FFBC0F"/>
<stop offset="1" stop-color="#FFDC41"/>
</linearGradient>
<linearGradient id="paint1_linear_418_5917" x1="13.2654" y1="34.3004" x2="31.5241" y2="30.5927" gradientUnits="userSpaceOnUse">
<stop stop-color="#FFBC0F"/>
<stop offset="1" stop-color="#FFDC41"/>
</linearGradient>
<clipPath id="clip0_418_5917">
<rect width="40" height="40" fill="white"/>
</clipPath>
</defs>
</svg>
