<svg width="38" height="38" viewBox="0 0 38 38" fill="none" xmlns="http://www.w3.org/2000/svg">
<path d="M27.3337 20.667C27.7757 20.667 28.1997 20.8427 28.5122 21.1552C28.8247 21.4677 29.0003 21.8917 29.0003 22.3337C29.0003 22.7757 28.8247 23.1997 28.5122 23.5122C28.1997 23.8247 27.7757 24.0003 27.3337 24.0003V24.8337C27.3337 25.2757 27.158 25.6997 26.8455 26.0122C26.533 26.3247 26.109 26.5003 25.667 26.5003C25.225 26.5003 24.801 26.3247 24.4885 26.0122C24.176 25.6997 24.0003 25.2757 24.0003 24.8337V24.0003H19.8337C19.5643 24.0003 19.299 23.9352 19.0605 23.8102C18.8218 23.6853 18.6172 23.5045 18.4637 23.2832C18.3103 23.0618 18.2128 22.8067 18.1795 22.5393C18.1463 22.2722 18.1783 22.0008 18.2728 21.7487L20.7728 15.082C20.928 14.668 21.2412 14.3327 21.6437 14.1497C22.046 13.9667 22.5047 13.951 22.9187 14.1062C23.3327 14.2613 23.668 14.5746 23.851 14.977C24.034 15.3794 24.0497 15.838 23.8945 16.252L22.2387 20.667H24.0003V19.0003C24.0003 18.5583 24.176 18.1343 24.4885 17.8218C24.801 17.5093 25.225 17.3337 25.667 17.3337C26.109 17.3337 26.533 17.5093 26.8455 17.8218C27.158 18.1343 27.3337 18.5583 27.3337 19.0003V20.667ZM32.3337 6.41533V2.33366C32.3337 1.89163 32.5093 1.46771 32.8218 1.15514C33.1343 0.842592 33.5583 0.666992 34.0003 0.666992C34.4423 0.666992 34.8663 0.842592 35.1788 1.15514C35.4913 1.46771 35.667 1.89163 35.667 2.33366V10.667C35.667 11.109 35.4913 11.5329 35.1788 11.8455C34.8663 12.1581 34.4423 12.3337 34.0003 12.3337H25.667C25.225 12.3337 24.801 12.1581 24.4885 11.8455C24.176 11.5329 24.0003 11.109 24.0003 10.667C24.0003 10.225 24.176 9.80104 24.4885 9.48848C24.801 9.17593 25.225 9.00033 25.667 9.00033H30.182C27.3778 5.86283 23.3487 4.00033 19.0003 4.00033C10.7162 4.00033 4.00033 10.7162 4.00033 19.0003C4.00033 27.2845 10.7162 34.0003 19.0003 34.0003C27.2845 34.0003 34.0003 27.2845 34.0003 19.0003C34.0003 18.5583 34.176 18.1343 34.4885 17.8218C34.801 17.5093 35.225 17.3337 35.667 17.3337C36.109 17.3337 36.533 17.5093 36.8455 17.8218C37.158 18.1343 37.3337 18.5583 37.3337 19.0003C37.3337 29.1253 29.1253 37.3337 19.0003 37.3337C8.87533 37.3337 0.666992 29.1253 0.666992 19.0003C0.666992 8.87533 8.87533 0.666992 19.0003 0.666992C24.1428 0.666992 28.9253 2.80199 32.3337 6.41533ZM16.3487 20.857L14.3337 23.167H15.667C16.109 23.167 16.533 23.3427 16.8455 23.6552C17.158 23.9677 17.3337 24.3917 17.3337 24.8337C17.3337 25.2757 17.158 25.6997 16.8455 26.0122C16.533 26.3247 16.109 26.5003 15.667 26.5003H10.667C9.23616 26.5003 8.47033 24.8162 9.41116 23.7378L13.8095 18.6978C13.8946 18.5948 13.9537 18.4727 13.9818 18.342C14.0098 18.2113 14.006 18.0757 13.9707 17.9468C13.9353 17.8178 13.8695 17.6993 13.7787 17.6012C13.6879 17.503 13.5748 17.4282 13.449 17.383C13.3232 17.3377 13.1884 17.3235 13.0559 17.3412C12.9234 17.359 12.7971 17.4085 12.6878 17.4853C12.5784 17.5623 12.4891 17.6643 12.4275 17.783C12.3659 17.9017 12.3337 18.0333 12.3337 18.167C12.3337 18.609 12.1581 19.033 11.8455 19.3455C11.5329 19.658 11.109 19.8337 10.667 19.8337C10.225 19.8337 9.80104 19.658 9.48848 19.3455C9.17593 19.033 9.00033 18.609 9.00033 18.167C9.00033 17.062 9.43931 16.0022 10.2207 15.2207C11.0021 14.4393 12.0619 14.0003 13.167 14.0003C14.2721 14.0003 15.3319 14.4393 16.1133 15.2207C16.8947 16.0022 17.3337 17.062 17.3337 18.167C17.3337 19.1495 16.9903 20.0837 16.3487 20.857Z" fill="url(#paint0_linear_418_5883)"/>
<defs>
<linearGradient id="paint0_linear_418_5883" x1="12.6937" y1="-2.85864" x2="63.97" y2="10.5284" gradientUnits="userSpaceOnUse">
<stop stop-color="#FFBC0F"/>
<stop offset="1" stop-color="#FFDC41"/>
</linearGradient>
</defs>
</svg>
