<svg width="24" height="24" viewBox="0 0 24 24" fill="none" xmlns="http://www.w3.org/2000/svg">
<path fill-rule="evenodd" clip-rule="evenodd" d="M17.1666 17.2255C16.5069 17.9652 15.6767 18.4389 14.7335 18.7069C12.9649 19.2084 11.1769 19.2257 9.41512 18.7031C7.81221 18.2275 6.62927 17.2485 6.15862 15.6066C5.8244 14.4422 6.58639 13.5728 7.76251 13.7092C8.27116 13.7678 8.60538 14.0714 8.84314 14.4883C8.99222 14.7506 9.11695 15.0264 9.25142 15.2973C9.68796 16.1802 10.3915 16.6798 11.3912 16.7883C12.2097 16.8767 13.001 16.8191 13.7581 16.4809C14.0514 16.3502 14.3106 16.1696 14.522 15.9294C15.0882 15.2848 14.9859 14.3721 14.2911 13.8639C13.6197 13.3729 12.8139 13.2423 12.0295 13.0703C10.907 12.8234 9.7815 12.5899 8.72621 12.1259C7.63584 11.6465 6.74912 10.95 6.46361 9.73366C6.13231 8.32234 6.52987 7.12911 7.67579 6.21353C8.68626 5.40651 9.90233 5.14519 11.1613 5.03758C11.4526 5.01261 11.7479 5.03374 12.0412 5.03374C13.2036 5.003 14.3359 5.15479 15.3854 5.68224C16.1883 6.08671 16.8538 6.63721 17.2407 7.4644C17.4297 7.86887 17.5203 8.3012 17.3985 8.73257C17.2504 9.25618 16.8889 9.62126 16.3403 9.73078C15.7683 9.84511 15.2373 9.75576 14.8767 9.23312C14.7052 8.98429 14.5405 8.72969 14.3856 8.47029C13.8945 7.64598 13.1949 7.18675 12.201 7.19059C11.7469 7.19251 11.2957 7.1781 10.8514 7.28378C10.4529 7.3789 10.0875 7.54318 9.78442 7.81988C9.2446 8.31369 9.26506 8.99293 9.84094 9.44448C10.22 9.74231 10.6692 9.90755 11.133 10.0248C12.2214 10.2986 13.3157 10.5532 14.4032 10.8327C14.9946 10.9855 15.5608 11.2142 16.1094 11.4851C18.6594 12.7456 18.4772 15.7536 17.1666 17.2255Z" fill="white" fill-opacity="0.5"/>
<path fill-rule="evenodd" clip-rule="evenodd" d="M22.2851 14.5182C22.2198 14.3693 22.1915 14.2319 22.2256 14.0667C22.4731 12.8609 22.4819 11.6514 22.2792 10.4351C21.3847 5.07706 16.2642 1.32058 10.824 2.04593C10.5054 2.08821 10.2413 2.03921 9.95483 1.88837C7.65521 0.677846 4.84305 1.09385 2.97314 2.90387C1.1315 4.687 0.668649 7.47313 1.84867 9.74239C1.97339 9.98161 2.01139 10.1968 1.95585 10.4629C1.84185 11.0067 1.8321 11.5639 1.80579 12.1442C1.82528 12.468 1.83113 12.8187 1.86815 13.1665C2.48399 18.9731 7.87835 23.0467 13.7521 22.1407C13.9324 22.1128 14.0825 22.1426 14.2423 22.2223C15.3521 22.7738 16.5448 22.9083 17.7453 22.72C21.6732 22.1042 23.8607 18.1238 22.2851 14.5182Z" stroke="white" stroke-opacity="0.5" stroke-width="2"/>
</svg>
